<svg width="64" height="57" viewBox="0 0 64 57" fill="none" xmlns="http://www.w3.org/2000/svg">
<g clip-path="url(#clip0_103_619)">
<path d="M61 55.2188H3V51.6562H61V55.2188Z" fill="#B18068"/>
<path d="M5 51.6562H61V55.2188H5V51.6562Z" fill="#A46B4F"/>
<path d="M61 51.6562H3V16.0312H61V51.6562Z" fill="#D8D2D4"/>
<path d="M5 16.0312H61V51.6562H5V16.0312Z" fill="#C9C0C3"/>
<path d="M61 16.0312H3V21.0535C3.59708 21.2637 4.23298 21.3727 4.875 21.375C6.33516 21.3538 7.72721 20.8214 8.75 19.893C9.77279 20.8214 11.1648 21.3538 12.625 21.375C14.0851 21.3534 15.477 20.821 16.5 19.893C16.9993 20.3612 17.6003 20.734 18.2664 20.9888C18.9326 21.2436 19.65 21.375 20.375 21.375C21.1 21.375 21.8174 21.2436 22.4836 20.9888C23.1497 20.734 23.7507 20.3612 24.25 19.893C24.7493 20.3612 25.3503 20.734 26.0164 20.9888C26.6826 21.2436 27.4 21.375 28.125 21.375C28.85 21.375 29.5674 21.2436 30.2336 20.9888C30.8997 20.734 31.5007 20.3612 32 19.893C32.4993 20.3612 33.1003 20.734 33.7664 20.9888C34.4326 21.2436 35.15 21.375 35.875 21.375C36.6 21.375 37.3174 21.2436 37.9836 20.9888C38.6497 20.734 39.2507 20.3612 39.75 19.893C40.2493 20.3612 40.8503 20.734 41.5164 20.9888C42.1826 21.2436 42.9 21.375 43.625 21.375C44.35 21.375 45.0674 21.2436 45.7336 20.9888C46.3997 20.734 47.0007 20.3612 47.5 19.893C47.9993 20.3612 48.6003 20.734 49.2664 20.9888C49.9326 21.2436 50.65 21.375 51.375 21.375C52.1 21.375 52.8174 21.2436 53.4836 20.9888C54.1497 20.734 54.7507 20.3612 55.25 19.893C56.273 20.821 57.6649 21.3534 59.125 21.375C59.767 21.3727 60.4029 21.2637 61 21.0535V16.0312Z" fill="#C9C0C3"/>
<path d="M61 16.0312H5V21.375C6.4156 21.3256 7.75673 20.7971 8.75 19.8975C9.7736 20.8242 11.1656 21.3549 12.625 21.375C14.0851 21.3534 15.477 20.821 16.5 19.893C16.9993 20.3612 17.6003 20.734 18.2664 20.9888C18.9326 21.2436 19.65 21.375 20.375 21.375C21.1 21.375 21.8174 21.2436 22.4836 20.9888C23.1497 20.734 23.7507 20.3612 24.25 19.893C24.7493 20.3612 25.3503 20.734 26.0164 20.9888C26.6826 21.2436 27.4 21.375 28.125 21.375C28.85 21.375 29.5674 21.2436 30.2336 20.9888C30.8997 20.734 31.5007 20.3612 32 19.893C32.4993 20.3612 33.1003 20.734 33.7664 20.9888C34.4326 21.2436 35.15 21.375 35.875 21.375C36.6 21.375 37.3174 21.2436 37.9836 20.9888C38.6497 20.734 39.2507 20.3612 39.75 19.893C40.2493 20.3612 40.8503 20.734 41.5164 20.9888C42.1826 21.2436 42.9 21.375 43.625 21.375C44.35 21.375 45.0674 21.2436 45.7336 20.9888C46.3997 20.734 47.0007 20.3612 47.5 19.893C47.9993 20.3612 48.6003 20.734 49.2664 20.9888C49.9326 21.2436 50.65 21.375 51.375 21.375C52.1 21.375 52.8174 21.2436 53.4836 20.9888C54.1497 20.734 54.7507 20.3612 55.25 19.893C56.273 20.821 57.6649 21.3534 59.125 21.375C59.767 21.3727 60.4029 21.2637 61 21.0535V16.0312Z" fill="#BAAFB3"/>
<path d="M25 24.9375H57V51.6562H25V24.9375Z" fill="#FCDE91"/>
<path d="M28 27.6094H57V51.6562H28V27.6094Z" fill="#FEEDB2"/>
<path d="M21 30.2812H7V24.9375H21V30.2812Z" fill="#996047"/>
<path d="M21 30.2812H10V27.6094H21V30.2812Z" fill="#A46B4F"/>
<path d="M3 5.34375H61V10.6875H3V5.34375Z" fill="#FFFAD2"/>
<path d="M5 7.125H61V10.6875H5V7.125Z" fill="#FEEDB2"/>
<path d="M7 30.2812H21V55.2188H7V30.2812Z" fill="#FEEDB2"/>
<path d="M61 10.6875H3C2.46957 10.6875 1.96086 10.8752 1.58579 11.2092C1.21071 11.5433 1 11.9963 1 12.4688V16.9219C3.14 20.4844 6.61 20.4844 8.75 16.9219C10.89 20.4844 14.36 20.4844 16.5 16.9219C18.64 20.4844 22.11 20.4844 24.25 16.9219C26.39 20.4844 29.86 20.4844 32 16.9219C34.14 20.4844 37.61 20.4844 39.75 16.9219C41.89 20.4844 45.36 20.4844 47.5 16.9219C49.64 20.4844 53.11 20.4844 55.25 16.9219C57.39 20.4844 60.86 20.4844 63 16.9219V12.4688C63 11.9963 62.7893 11.5433 62.4142 11.2092C62.0391 10.8752 61.5304 10.6875 61 10.6875Z" fill="#FF778B"/>
<path d="M3 13.3594V19.0344C4.939 20.2083 7.2 19.5109 8.75 16.9219C10.89 20.4844 14.36 20.4844 16.5 16.9219C18.64 20.4844 22.11 20.4844 24.25 16.9219C26.39 20.4844 29.86 20.4844 32 16.9219C34.14 20.4844 37.61 20.4844 39.75 16.9219C41.89 20.4844 45.36 20.4844 47.5 16.9219C49.64 20.4844 53.11 20.4844 55.25 16.9219C57.39 20.4844 60.86 20.4844 63 16.9219V12.4688H4C3.73478 12.4688 3.48043 12.5626 3.29289 12.7296C3.10536 12.8966 3 13.1232 3 13.3594Z" fill="#F04F6B"/>
<path d="M44 21.375H20V1.78125H44V21.375Z" fill="#EEF6F6"/>
<path d="M44 21.375H23V4.45312H44V21.375Z" fill="#FAFCFC"/>
<path d="M40 8.90625V9.79688H37V17.8125H27V9.79688H24V8.90625C24 7.96142 24.4214 7.05528 25.1716 6.38718C25.9217 5.71908 26.9391 5.34375 28 5.34375H36C37.0609 5.34375 38.0783 5.71908 38.8284 6.38718C39.5786 7.05528 40 7.96142 40 8.90625Z" fill="#88747C"/>
<path d="M40 8.90625C39.9986 8.40206 39.8758 7.90399 39.64 7.44562C39.1253 7.2356 38.5661 7.12627 38 7.125H29C28.2044 7.125 27.4413 7.4065 26.8787 7.90757C26.3161 8.40865 26 9.08825 26 9.79688H29V17.8125H37V9.79688H40V8.90625Z" fill="#7B636B"/>
<path d="M32 8.90625C32.5304 8.90625 33.0391 8.71858 33.4142 8.38453C33.7893 8.05048 34 7.59742 34 7.125V5.34375H30V7.125C30 7.59742 30.2107 8.05048 30.5858 8.38453C30.9609 8.71858 31.4696 8.90625 32 8.90625Z" fill="#7B636B"/>
<path d="M32 8.90625C32.5304 8.90625 33.0391 8.71858 33.4142 8.38453C33.7893 8.05048 34 7.59742 34 7.125H30C30 7.59742 30.2107 8.05048 30.5858 8.38453C30.9609 8.71858 31.4696 8.90625 32 8.90625Z" fill="#6D555C"/>
<path d="M44.5 28.5H48.5V30.2812L49.5 33.8438H43.5L44.5 30.2812V28.5Z" fill="#88747C"/>
<path d="M48.5 29.3906H46.5V33.8438H49.5L48.5 30.2812V29.3906Z" fill="#7B636B"/>
<path d="M31.5 28.5H35.5V30.2812L36.5 33.8438H30.5L31.5 30.2812V28.5Z" fill="#88747C"/>
<path d="M33.5 29.3906V33.8438H36.5L35.5 30.2812V29.3906H33.5Z" fill="#7B636B"/>
<path d="M40 47.2031L43.5 36.5156L42.3 33.9435C42.1372 33.5954 42.059 33.2207 42.0705 32.8438C42.082 32.4669 42.1829 32.0964 42.3666 31.7567C42.5503 31.417 42.8126 31.1158 43.1364 30.8729C43.4601 30.6299 43.838 30.4508 44.245 30.3472L44.5 30.2812V30.7266C44.5 31.199 44.7107 31.652 45.0858 31.9861C45.4609 32.3201 45.9696 32.5078 46.5 32.5078C47.0304 32.5078 47.5391 32.3201 47.9142 31.9861C48.2893 31.652 48.5 31.199 48.5 30.7266V30.2812L48.758 30.3472C49.1648 30.4511 49.5423 30.6304 49.8657 30.8735C50.1891 31.1166 50.4511 31.4178 50.6345 31.7575C50.8179 32.0971 50.9186 32.4675 50.9299 32.8442C50.9412 33.221 50.8628 33.5956 50.7 33.9435L49.5 36.5156L53 47.2031H40Z" fill="#FF778B"/>
<path d="M50.7 33.9435C50.8628 33.5954 50.941 33.2207 50.9295 32.8438C50.918 32.4669 50.8171 32.0964 50.6334 31.7567C50.4497 31.417 50.1874 31.1158 49.8636 30.8729C49.5399 30.6299 49.162 30.4508 48.755 30.3472L48.5 30.2812V30.7266C48.497 31.141 48.3319 31.5416 48.033 31.8592C47.7341 32.1769 47.3201 32.3918 46.8625 32.4669C46.4048 32.542 45.9321 32.4726 45.5257 32.2707C45.1193 32.0688 44.8047 31.747 44.636 31.3607C44.3359 31.7293 44.1471 32.1604 44.0877 32.6127C44.0284 33.0649 44.1004 33.5232 44.297 33.9435L45.5 36.5156L42 47.2031H53L49.5 36.5156L50.7 33.9435Z" fill="#F04F6B"/>
<path d="M29.5 42.75V36.5156L28.733 33.329C28.6448 32.9616 28.6499 32.5812 28.7479 32.2158C28.846 31.8504 29.0346 31.5091 29.2998 31.2169C29.5651 30.9248 29.9003 30.6891 30.281 30.5272C30.6617 30.3654 31.0782 30.2813 31.5 30.2812V30.7266C31.5 31.199 31.7107 31.652 32.0858 31.9861C32.4609 32.3201 32.9696 32.5078 33.5 32.5078C34.0305 32.5078 34.5392 32.3201 34.9142 31.9861C35.2893 31.652 35.5 31.199 35.5 30.7266V30.2812C35.9219 30.2813 36.3384 30.3654 36.7191 30.5272C37.0998 30.6891 37.435 30.9248 37.7002 31.2169C37.9655 31.5091 38.154 31.8504 38.2521 32.2158C38.3502 32.5812 38.3553 32.9616 38.267 33.329L37.5 36.5156V42.75H29.5Z" fill="#D8D2D4"/>
<path d="M38.267 33.329C38.3553 32.9616 38.3502 32.5812 38.2521 32.2158C38.154 31.8504 37.9655 31.5091 37.7002 31.2169C37.435 30.9248 37.0997 30.6891 36.7191 30.5272C36.3384 30.3654 35.9219 30.2813 35.5 30.2812V30.7266C35.4912 31.1687 35.298 31.5922 34.958 31.9145C34.618 32.2368 34.1555 32.435 33.6606 32.4704C33.1656 32.5058 32.6736 32.376 32.2802 32.1062C31.8867 31.8364 31.62 31.4459 31.532 31.0107C31.1891 31.3045 30.9357 31.6712 30.7957 32.0763C30.6558 32.4814 30.6339 32.9116 30.732 33.3263L31.5 36.5156V42.75H37.5V36.5156L38.267 33.329Z" fill="#C9C0C3"/>
<path d="M36 4.45312H28C26.6744 4.45454 25.4036 4.92416 24.4662 5.75898C23.5289 6.59379 23.0016 7.72564 23 8.90625V9.79688C23 10.0331 23.1054 10.2596 23.2929 10.4266C23.4804 10.5937 23.7348 10.6875 24 10.6875H26V17.8125C26 18.0487 26.1054 18.2752 26.2929 18.4423C26.4804 18.6093 26.7348 18.7031 27 18.7031H37C37.2652 18.7031 37.5196 18.6093 37.7071 18.4423C37.8946 18.2752 38 18.0487 38 17.8125V10.6875H40C40.2652 10.6875 40.5196 10.5937 40.7071 10.4266C40.8946 10.2596 41 10.0331 41 9.79688V8.90625C40.9984 7.72564 40.4711 6.59379 39.5338 5.75898C38.5964 4.92416 37.3256 4.45454 36 4.45312ZM31 6.23438H33V7.125C33 7.36121 32.8946 7.58774 32.7071 7.75477C32.5196 7.92179 32.2652 8.01562 32 8.01562C31.7348 8.01562 31.4804 7.92179 31.2929 7.75477C31.1054 7.58774 31 7.36121 31 7.125V6.23438ZM37 8.90625C36.7348 8.90625 36.4804 9.00008 36.2929 9.16711C36.1054 9.33413 36 9.56067 36 9.79688V16.9219H28V9.79688C28 9.56067 27.8946 9.33413 27.7071 9.16711C27.5196 9.00008 27.2652 8.90625 27 8.90625H25C25 8.19762 25.3161 7.51802 25.8787 7.01695C26.4413 6.51588 27.2044 6.23438 28 6.23438H29V7.125C29 7.83363 29.3161 8.51323 29.8787 9.0143C30.4413 9.51538 31.2044 9.79688 32 9.79688C32.7956 9.79688 33.5587 9.51538 34.1213 9.0143C34.6839 8.51323 35 7.83363 35 7.125V6.23438H36C36.7956 6.23438 37.5587 6.51588 38.1213 7.01695C38.6839 7.51802 39 8.19762 39 8.90625H37Z" fill="black"/>
<path d="M63.882 17.3423C63.9592 17.2128 63.9997 17.0685 64 16.9219V12.4688C63.9974 11.9181 63.8039 11.3816 63.4459 10.9327C63.0879 10.4838 62.5829 10.1443 62 9.96075V5.34375C62 5.10754 61.8946 4.88101 61.7071 4.71398C61.5196 4.54696 61.2652 4.45312 61 4.45312H45V1.78125C45 1.54504 44.8946 1.31851 44.7071 1.15148C44.5196 0.984458 44.2652 0.890625 44 0.890625H20C19.7348 0.890625 19.4804 0.984458 19.2929 1.15148C19.1054 1.31851 19 1.54504 19 1.78125V4.45312H3C2.73478 4.45312 2.48043 4.54696 2.29289 4.71398C2.10536 4.88101 2 5.10754 2 5.34375V9.96075C1.41709 10.1443 0.912091 10.4838 0.554088 10.9327C0.196084 11.3816 0.00256297 11.9181 0 12.4688L0 16.9219C0.000285133 17.0685 0.0407937 17.2128 0.118 17.3423C0.586948 18.1541 1.22573 18.8787 2 19.4771V54.3281H1C0.734784 54.3281 0.48043 54.422 0.292893 54.589C0.105357 54.756 0 54.9825 0 55.2188C0 55.455 0.105357 55.6815 0.292893 55.8485C0.48043 56.0155 0.734784 56.1094 1 56.1094H63C63.2652 56.1094 63.5196 56.0155 63.7071 55.8485C63.8946 55.6815 64 55.455 64 55.2188C64 54.9825 63.8946 54.756 63.7071 54.589C63.5196 54.422 63.2652 54.3281 63 54.3281H62V19.4771C62.7743 18.8787 63.4131 18.1541 63.882 17.3423ZM45 6.23438H60V9.79688H45V6.23438ZM21 2.67188H43V20.4844H21V2.67188ZM4 6.23438H19V9.79688H4V6.23438ZM2 16.6921V12.4688C2 12.2325 2.10536 12.006 2.29289 11.839C2.48043 11.672 2.73478 11.5781 3 11.5781H19V18.2632C18.3166 17.7938 17.763 17.1912 17.382 16.5015C17.2882 16.3687 17.158 16.2592 17.0038 16.1833C16.8496 16.1074 16.6762 16.0676 16.5 16.0676C16.3238 16.0676 16.1504 16.1074 15.9962 16.1833C15.842 16.2592 15.7118 16.3687 15.618 16.5015C14.778 17.9016 13.687 18.7031 12.625 18.7031C11.563 18.7031 10.472 17.9016 9.632 16.5015C9.53817 16.3687 9.40805 16.2592 9.2538 16.1833C9.09955 16.1074 8.92621 16.0676 8.75 16.0676C8.57379 16.0676 8.40045 16.1074 8.2462 16.1833C8.09195 16.2592 7.96183 16.3687 7.868 16.5015C7.028 17.9016 5.937 18.7031 4.875 18.7031C3.862 18.7031 2.823 17.9737 2 16.6921ZM6 54.3281H4V52.5469H6V54.3281ZM13 54.3281H8V49.875H13V54.3281ZM13 48.0938H8V43.6406H13V48.0938ZM13 41.8594H8V37.4062H13V41.8594ZM13 35.625H8V31.1719H13V35.625ZM20 54.3281H15V49.875H20V54.3281ZM20 48.0938H15V43.6406H20V48.0938ZM20 41.8594H15V37.4062H20V41.8594ZM20 35.625H15V31.1719H20V35.625ZM20 29.3906H8V25.8281H20V29.3906ZM60 54.3281H22V52.5469H60V54.3281ZM44.423 36.1736L43.223 33.6015C43.1128 33.3698 43.0597 33.1198 43.0672 32.8683C43.0748 32.6167 43.143 32.3696 43.267 32.1435C43.3734 31.9517 43.5177 31.7786 43.693 31.6323C43.8994 32.1491 44.2804 32.5964 44.7836 32.9127C45.2868 33.2289 45.8876 33.3987 46.5035 33.3987C47.1194 33.3987 47.7202 33.2289 48.2234 32.9127C48.7266 32.5964 49.1076 32.1491 49.314 31.6323C49.4891 31.7788 49.6333 31.9519 49.74 32.1435C49.8638 32.3697 49.9318 32.6168 49.9394 32.8683C49.947 33.1198 49.894 33.3698 49.784 33.6015L48.584 36.1736C48.4963 36.3612 48.4832 36.5699 48.547 36.765L51.667 46.3125H41.333L44.46 36.765C44.5238 36.5699 44.5107 36.3612 44.423 36.1736ZM45.5 30.7266V29.3906H47.5V30.7266C47.5 30.9628 47.3946 31.1893 47.2071 31.3563C47.0196 31.5234 46.7652 31.6172 46.5 31.6172C46.2348 31.6172 45.9804 31.5234 45.7929 31.3563C45.6054 31.1893 45.5 30.9628 45.5 30.7266ZM47.5 48.0938H53C53.1552 48.0938 53.3084 48.0616 53.4472 47.9997C53.5861 47.9379 53.7069 47.8481 53.8 47.7375C53.8931 47.6269 53.9561 47.4985 53.9839 47.3624C54.0116 47.2264 54.0035 47.0865 53.96 46.9538L50.56 36.5682L51.626 34.2891C52.0329 33.4209 52.0378 32.4446 51.6395 31.5733C51.2412 30.702 50.4721 30.0064 49.5 29.6382V28.5C49.5 28.2638 49.3946 28.0373 49.2071 27.8702C49.0196 27.7032 48.7652 27.6094 48.5 27.6094H44.5C44.2348 27.6094 43.9804 27.7032 43.7929 27.8702C43.6054 28.0373 43.5 28.2638 43.5 28.5V29.6382C42.5279 30.0064 41.7588 30.702 41.3605 31.5733C40.9622 32.4446 40.9671 33.4209 41.374 34.2891L42.442 36.5708L39.042 46.9564C38.9991 47.0888 38.9914 47.2283 39.0193 47.3639C39.0472 47.4994 39.1101 47.6274 39.2029 47.7376C39.2958 47.8478 39.4161 47.9374 39.5544 47.9992C39.6927 48.061 39.8453 48.0934 40 48.0938H45.5V50.7656H34.5V43.6406H37.5C37.7652 43.6406 38.0196 43.5468 38.2071 43.3798C38.3946 43.2127 38.5 42.9862 38.5 42.75V36.6047L39.244 33.5115C39.4496 32.6576 39.2797 31.766 38.7691 31.0204C38.2586 30.2748 37.4465 29.7319 36.5 29.5037V28.5C36.5 28.2638 36.3946 28.0373 36.2071 27.8702C36.0196 27.7032 35.7652 27.6094 35.5 27.6094H31.5C31.2348 27.6094 30.9804 27.7032 30.7929 27.8702C30.6054 28.0373 30.5 28.2638 30.5 28.5V29.5082C29.5535 29.7364 28.7414 30.2792 28.2309 31.0249C27.7203 31.7705 27.5504 32.6621 27.756 33.516L28.5 36.6091V42.75C28.5 42.9862 28.6054 43.2127 28.7929 43.3798C28.9804 43.5468 29.2348 43.6406 29.5 43.6406H32.5V50.7656H26V25.8281H56V50.7656H47.5V48.0938ZM30.478 36.3286L29.711 33.1419C29.6268 32.803 29.6685 32.4488 29.8297 32.1327C29.9909 31.8167 30.263 31.5557 30.605 31.3892C30.7671 31.9637 31.1399 32.4735 31.6644 32.8377C32.1889 33.202 32.8349 33.3998 33.5 33.3998C34.1651 33.3998 34.8111 33.202 35.3356 32.8377C35.8601 32.4735 36.2329 31.9637 36.395 31.3892C36.737 31.5557 37.0091 31.8167 37.1703 32.1327C37.3315 32.4488 37.3732 32.803 37.289 33.1419L36.522 36.3286C36.5077 36.3901 36.5003 36.4528 36.5 36.5156V41.8594H30.5V36.5156C30.4997 36.4528 30.4923 36.3901 30.478 36.3286ZM32.5 30.7266V29.3906H34.5V30.7266C34.5 30.9628 34.3946 31.1893 34.2071 31.3563C34.0196 31.5234 33.7652 31.6172 33.5 31.6172C33.2348 31.6172 32.9804 31.5234 32.7929 31.3563C32.6054 31.1893 32.5 30.9628 32.5 30.7266ZM60 50.7656H58V24.9375C58 24.7013 57.8946 24.4748 57.7071 24.3077C57.5196 24.1407 57.2652 24.0469 57 24.0469H25C24.7348 24.0469 24.4804 24.1407 24.2929 24.3077C24.1054 24.4748 24 24.7013 24 24.9375V50.7656H22V24.9375C22 24.7013 21.8946 24.4748 21.7071 24.3077C21.5196 24.1407 21.2652 24.0469 21 24.0469H7C6.73478 24.0469 6.48043 24.1407 6.29289 24.3077C6.10536 24.4748 6 24.7013 6 24.9375V50.7656H4V20.3891C4.28694 20.4489 4.58032 20.4809 4.875 20.4844C5.64441 20.4539 6.39524 20.264 7.06789 19.9299C7.74054 19.5958 8.31648 19.1267 8.75 18.5597C9.18341 19.1268 9.75932 19.596 10.432 19.9301C11.1047 20.2642 11.8556 20.454 12.625 20.4844C13.3946 20.4531 14.1454 20.2627 14.818 19.9282C15.4906 19.5937 16.0665 19.1242 16.5 18.5571C17.1375 19.3213 18.004 19.9099 19 20.2555V21.375C19 21.6112 19.1054 21.8377 19.2929 22.0048C19.4804 22.1718 19.7348 22.2656 20 22.2656H44C44.2652 22.2656 44.5196 22.1718 44.7071 22.0048C44.8946 21.8377 45 21.6112 45 21.375V20.2555C45.996 19.9099 46.8625 19.3213 47.5 18.5571C47.9082 19.1458 48.4786 19.6318 49.1571 19.9688C49.8356 20.3059 50.5996 20.4828 51.3765 20.4828C52.1534 20.4828 52.9174 20.3059 53.5959 19.9688C54.2744 19.6318 54.8448 19.1458 55.253 18.5571C55.6859 19.1241 56.2613 19.5935 56.9334 19.9281C57.6055 20.2626 58.3559 20.4531 59.125 20.4844C59.4197 20.4809 59.7131 20.4489 60 20.3891V50.7656ZM59.125 18.7031C58.063 18.7031 56.972 17.9016 56.132 16.5015C56.0382 16.3687 55.908 16.2592 55.7538 16.1833C55.5996 16.1074 55.4262 16.0676 55.25 16.0676C55.0738 16.0676 54.9004 16.1074 54.7462 16.1833C54.592 16.2592 54.4618 16.3687 54.368 16.5015C53.528 17.9016 52.437 18.7031 51.375 18.7031C50.313 18.7031 49.222 17.9016 48.382 16.5015C48.2966 16.3592 48.1695 16.2403 48.0142 16.1573C47.8588 16.0744 47.6811 16.0306 47.5 16.0306C47.3189 16.0306 47.1412 16.0744 46.9858 16.1573C46.8305 16.2403 46.7034 16.3592 46.618 16.5015C46.237 17.1912 45.6834 17.7938 45 18.2632V11.5781H61C61.2652 11.5781 61.5196 11.672 61.7071 11.839C61.8946 12.006 62 12.2325 62 12.4688V16.6921C61.177 17.9737 60.138 18.7031 59.125 18.7031Z" fill="black"/>
</g>
<defs>
<clipPath id="clip0_103_619">
<rect width="64" height="57" fill="white"/>
</clipPath>
</defs>
</svg>
