<svg width="74" height="74" viewBox="0 0 74 74" fill="none" xmlns="http://www.w3.org/2000/svg">
<path d="M58.4418 18.9119H56.6125V20.654C56.6125 21.2797 56.1053 21.7868 55.4797 21.7868H17.4962C16.8706 21.7868 16.3634 21.2797 16.3634 20.654V18.9119H14.534C11.7436 18.9119 9.48135 21.174 9.48135 23.9645V25.6746H63.4944V23.9645C63.4944 21.174 61.2323 18.9119 58.4418 18.9119Z" fill="#57BE92"/>
<path d="M16.3634 18.9119H14.534C11.7436 18.9119 9.48135 21.174 9.48135 23.9645V25.6746H13.2109V23.9645C13.2109 21.8464 14.5149 20.0338 16.3634 19.2827V18.9119Z" fill="#22B27F"/>
<path d="M34.5388 60.8381H35.6953C35.5886 60.5429 35.5297 60.2254 35.5297 59.8945C35.5297 58.3559 36.7885 57.0971 38.3271 57.0971C38.9739 57.0971 39.5697 57.3216 40.0449 57.6937C40.4037 56.5623 41.4659 55.7361 42.7122 55.7361C43.9956 55.7361 45.0812 56.6132 45.4072 57.7965C45.9003 57.3629 46.544 57.097 47.2484 57.097C48.1803 57.097 49.0075 57.5605 49.5165 58.2666C50.0256 57.5605 50.8528 57.097 51.7847 57.097C52.4164 57.097 52.999 57.3118 53.4687 57.6685C53.7867 56.4734 54.878 55.5849 56.1697 55.5849C57.5213 55.5849 58.6564 56.5569 58.9123 57.8361C59.3449 57.5612 59.8557 57.3994 60.4034 57.3994C60.8963 57.3994 61.3601 57.5291 61.7634 57.7553V31.6608C61.2766 31.933 60.716 32.0888 60.1187 32.0888C58.3017 32.0888 56.8207 30.6532 56.7464 28.8545H56.7392C56.6649 30.6532 55.184 32.0888 53.367 32.0888C51.5499 32.0888 50.069 30.6532 49.9947 28.8545H49.9876C49.9133 30.6532 48.4323 32.0888 46.6153 32.0888C44.7983 32.0888 43.3173 30.6532 43.243 28.8545H43.2359C43.1616 30.6532 41.6807 32.0888 39.8636 32.0888C38.0466 32.0888 36.5657 30.6532 36.4914 28.8545H36.4842C36.4099 30.6532 34.929 32.0888 33.1119 32.0888C31.2949 32.0888 29.814 30.6532 29.7397 28.8545H29.7325C29.6582 30.6532 28.1773 32.0888 26.3603 32.0888C24.5432 32.0888 23.0623 30.6532 22.988 28.8545H22.9809C22.9066 30.6532 21.4256 32.0888 19.6086 32.0888C17.7916 32.0888 16.3106 30.6532 16.2363 28.8545H16.2292C16.1549 30.6532 14.674 32.0888 12.8569 32.0888C12.2596 32.0888 11.699 31.933 11.2122 31.6608V64.5841C11.2122 64.8968 11.4658 65.1505 11.7786 65.1505H33.9721V61.4045C33.9724 61.0916 34.226 60.8381 34.5388 60.8381Z" fill="#FFE5C2"/>
<path d="M9.48145 28.7128C9.48145 30.5771 10.9928 32.0885 12.8572 32.0885C14.7216 32.0885 16.233 30.5771 16.233 28.7128C16.233 30.5771 17.7444 32.0885 19.6088 32.0885C21.4732 32.0885 22.9846 30.5771 22.9846 28.7128C22.9846 30.5771 24.496 32.0885 26.3604 32.0885C28.2247 32.0885 29.7361 30.5771 29.7361 28.7128C29.7361 30.5771 31.2475 32.0885 33.1119 32.0885C34.9763 32.0885 36.4877 30.5771 36.4877 28.7128C36.4877 30.5771 37.9991 32.0885 39.8635 32.0885C41.7279 32.0885 43.2393 30.5771 43.2393 28.7128C43.2393 30.5771 44.7507 32.0885 46.615 32.0885C48.4794 32.0885 49.9908 30.5771 49.9908 28.7128C49.9908 30.5771 51.5022 32.0885 53.3666 32.0885C55.231 32.0885 56.7424 30.5771 56.7424 28.7128C56.7424 30.5771 58.2538 32.0885 60.1182 32.0885C61.9825 32.0885 63.4939 30.5771 63.4939 28.7128V25.6746H9.48145V28.7128Z" fill="#A44F3E"/>
<path d="M12.8572 32.9385C12.5853 32.9385 12.3197 32.9116 12.062 32.8623V64.3009H14.6869V37.5666C14.6869 37.0217 14.9968 36.5485 15.449 36.3119V32.0461C14.7327 32.6044 13.8336 32.9385 12.8572 32.9385Z" fill="#FED2A4"/>
<path d="M63.096 60.9513C63.1638 60.7109 63.2009 60.4581 63.2009 60.1969C63.2009 58.6583 61.9421 57.3995 60.4035 57.3995C59.8558 57.3995 59.345 57.5614 58.9124 57.8362C58.6565 56.5568 57.5214 55.585 56.1698 55.585C54.8781 55.585 53.7868 56.4734 53.4688 57.6685C52.9991 57.3118 52.4165 57.097 51.7848 57.097C50.8528 57.097 50.0257 57.5606 49.5167 58.2667C49.0076 57.5606 48.1804 57.097 47.2485 57.097C46.5442 57.097 45.9004 57.3629 45.4073 57.7966C45.0814 56.6131 43.9955 55.7362 42.7123 55.7362C41.4661 55.7362 40.4039 56.5624 40.045 57.6938C39.5698 57.3216 38.974 57.0972 38.3272 57.0972C36.7886 57.0972 35.5298 58.3559 35.5298 59.8945C35.5298 60.268 35.6046 60.6248 35.7389 60.9514H63.096V60.9513Z" fill="#57BE92"/>
<path d="M38.4938 60.8382C38.3872 60.543 38.3286 60.2253 38.3286 59.8945C38.3286 58.8665 38.8911 57.9639 39.7231 57.4778C39.3115 57.2375 38.8355 57.0972 38.3269 57.0972C36.7884 57.0972 35.5296 58.3559 35.5296 59.8945C35.5296 60.2253 35.588 60.543 35.6947 60.8382H38.4938Z" fill="#22B27F"/>
<path d="M63.9521 65.1505H33.9724V61.4045C33.9724 61.0918 34.226 60.8381 34.5388 60.8381H63.9522C64.2649 60.8381 64.5186 61.0918 64.5186 61.4045V64.5841C64.5185 64.8969 64.265 65.1505 63.9521 65.1505Z" fill="#F6A96C"/>
<path d="M39.6054 60.8381H34.5388C34.226 60.8381 33.9724 61.0918 33.9724 61.4045V65.1505H39.039V61.4045C39.039 61.0917 39.2927 60.8381 39.6054 60.8381Z" fill="#EA9B58"/>
<path d="M55.4797 14.0005H34.5114V14.1577C34.5114 15.3941 33.5092 16.3963 32.2729 16.3963H30.6355C30.4018 17.7567 29.2173 18.7921 27.7902 18.7921H23.9828C22.388 18.7921 21.095 17.4991 21.095 15.9042V14.0005H17.4962C16.8706 14.0005 16.3634 14.5076 16.3634 15.1333V20.6539C16.3634 21.2796 16.8706 21.7868 17.4962 21.7868H55.4797C56.1053 21.7868 56.6125 21.2796 56.6125 20.6539V15.1333C56.6125 14.5076 56.1053 14.0005 55.4797 14.0005Z" fill="#FFE5C2"/>
<path d="M19.8945 20.6539V15.1333C19.8945 14.5076 20.4017 14.0005 21.0273 14.0005H17.4962C16.8706 14.0005 16.3634 14.5076 16.3634 15.1333V20.6539C16.3634 21.2796 16.8706 21.7868 17.4962 21.7868H21.0273C20.4017 21.7868 19.8945 21.2796 19.8945 20.6539Z" fill="#FED2A4"/>
<path d="M29.6599 65.1504H15.5366V37.5664C15.5366 37.2536 15.7902 37 16.103 37H29.0935C29.4063 37 29.6599 37.2536 29.6599 37.5664V65.1504Z" fill="#A44F3E"/>
<path d="M19.668 37H16.103C15.7902 37 15.5366 37.2536 15.5366 37.5664V65.1504H19.1016V37.5664C19.1016 37.2536 19.3552 37 19.668 37Z" fill="#883F2E"/>
<path d="M26.6308 58.4039V40.2495C26.6308 40.0618 26.4787 39.9097 26.291 39.9097H18.9057C18.718 39.9097 18.5659 40.0618 18.5659 40.2495V58.4039C18.5659 58.5916 18.718 58.7437 18.9057 58.7437H26.2909C26.4786 58.7437 26.6308 58.5916 26.6308 58.4039Z" fill="#C8EFFE"/>
<path d="M20.9141 58.4039V40.2495C20.9141 40.0618 21.0662 39.9097 21.2539 39.9097H18.9057C18.718 39.9097 18.5659 40.0618 18.5659 40.2495V58.4039C18.5659 58.5916 18.718 58.7437 18.9057 58.7437H21.2539C21.0662 58.7437 20.9141 58.5916 20.9141 58.4039Z" fill="#99E6FC"/>
<path d="M11.9869 28.7128V25.6746H9.48145V28.7128C9.48145 30.5771 10.9928 32.0885 12.8572 32.0885C13.3 32.0885 13.7225 32.0025 14.11 31.8474C12.8661 31.3498 11.9869 30.1344 11.9869 28.7128Z" fill="#883F2E"/>
<path d="M16.233 25.6746V28.7128C16.233 30.5771 17.7444 32.0885 19.6088 32.0885C21.4732 32.0885 22.9846 30.5771 22.9846 28.7128V25.6746H16.233Z" fill="#F6A96C"/>
<path d="M18.7386 28.7128V25.6746H16.233V28.7128C16.233 30.5771 17.7444 32.0885 19.6088 32.0885C20.0516 32.0885 20.474 32.0025 20.8616 31.8474C19.6177 31.3498 18.7386 30.1344 18.7386 28.7128Z" fill="#EA9B58"/>
<path d="M29.7362 25.6746V28.7128C29.7362 30.5771 31.2476 32.0885 33.112 32.0885C34.9764 32.0885 36.4878 30.5771 36.4878 28.7128V25.6746H29.7362Z" fill="#F6A96C"/>
<path d="M32.2418 28.7128V25.6746H29.7362V28.7128C29.7362 30.5771 31.2476 32.0885 33.112 32.0885C33.5548 32.0885 33.9772 32.0025 34.3648 31.8474C33.1209 31.3498 32.2418 30.1344 32.2418 28.7128Z" fill="#EA9B58"/>
<path d="M43.2396 25.6746V28.7128C43.2396 30.5771 44.751 32.0885 46.6153 32.0885C48.4797 32.0885 49.9911 30.5771 49.9911 28.7128V25.6746H43.2396Z" fill="#F6A96C"/>
<path d="M45.745 28.7128V25.6746H43.2395V28.7128C43.2395 30.5771 44.7509 32.0885 46.6153 32.0885C47.0581 32.0885 47.4805 32.0025 47.868 31.8474C46.6242 31.3498 45.745 30.1344 45.745 28.7128Z" fill="#EA9B58"/>
<path d="M56.7428 28.7128C56.7428 30.5771 58.2542 32.0885 60.1186 32.0885C61.983 32.0885 63.4944 30.5771 63.4944 28.7128V25.6746H56.7427V28.7128H56.7428Z" fill="#F6A96C"/>
<path d="M59.2483 28.7128V25.6746H56.7427V28.7128C56.7427 30.5771 58.2541 32.0885 60.1185 32.0885C60.5613 32.0885 60.9837 32.0025 61.3713 31.8474C60.1274 31.3498 59.2483 30.1344 59.2483 28.7128Z" fill="#EA9B58"/>
<path d="M56.9718 49.6976V37.5664C56.9718 37.2536 56.7181 37 56.4054 37H34.5387C34.2259 37 33.9723 37.2536 33.9723 37.5664V49.6976H56.9718Z" fill="#C8EFFE"/>
<path d="M37.563 49.6976V37.5664C37.563 37.2536 37.8166 37 38.1294 37H34.5387C34.2259 37 33.9723 37.2536 33.9723 37.5664V49.6976H37.563Z" fill="#99E6FC"/>
<path d="M51.1085 49.6976L52.0098 44.5898H46.9121L47.8134 49.6976H51.1085Z" fill="#F6A96C"/>
<path d="M57.8103 49.6978H33.1338C32.803 49.6978 32.5349 49.9659 32.5349 50.2967V52.0935C32.5349 52.4243 32.803 52.6925 33.1338 52.6925H57.8103C58.1411 52.6925 58.4093 52.4243 58.4093 52.0935V50.2967C58.4094 49.966 58.1412 49.6978 57.8103 49.6978Z" fill="white"/>
<path d="M37.2266 52.0935V50.2967C37.2266 49.9659 37.4947 49.6978 37.8255 49.6978H33.1338C32.803 49.6978 32.5349 49.9659 32.5349 50.2967V52.0935C32.5349 52.4243 32.803 52.6925 33.1338 52.6925H37.8255C37.4947 52.6926 37.2266 52.4243 37.2266 52.0935Z" fill="#F3F0FF"/>
<path d="M27.7903 18.7921H23.9829C22.3881 18.7921 21.0951 17.4991 21.0951 15.9042V9.41602C21.0951 9.10325 21.3487 8.84961 21.6615 8.84961H30.1118C30.4246 8.84961 30.6782 9.10325 30.6782 9.41602V15.9042C30.6782 17.4992 29.3852 18.7921 27.7903 18.7921Z" fill="#F6A96C"/>
<path d="M24.6523 15.9042V9.41602C24.6523 9.10325 24.906 8.84961 25.2187 8.84961H21.6615C21.3487 8.84961 21.0951 9.10325 21.0951 9.41602V15.9042C21.0951 17.4991 22.3881 18.7921 23.9829 18.7921H27.5402C25.9453 18.7921 24.6523 17.4991 24.6523 15.9042Z" fill="#EA9B58"/>
<path d="M64.0445 59.993C63.9838 58.8956 63.4354 57.9263 62.6131 57.2981V32.1205C63.6616 31.3509 64.344 30.1102 64.344 28.7128L64.3441 23.9645C64.3441 20.71 61.6963 18.0622 58.4417 18.0622H57.4621V15.1333C57.4621 14.0403 56.5727 13.1509 55.4797 13.1509H51.2734C50.8041 13.1509 50.4238 13.5313 50.4238 14.0005C50.4238 14.4697 50.8041 14.8501 51.2734 14.8501H55.4797C55.6359 14.8501 55.7629 14.9772 55.7629 15.1333V20.654C55.7629 20.8101 55.6359 20.9372 55.4797 20.9372H17.4962C17.34 20.9372 17.213 20.8101 17.213 20.654V15.1333C17.213 14.9772 17.34 14.8501 17.4962 14.8501H20.2455V15.9042C20.2455 17.965 21.9221 19.6417 23.9829 19.6417H27.7903C29.3784 19.6417 30.7373 18.6457 31.2777 17.2459H32.2729C33.7376 17.2459 34.9665 16.2205 35.2817 14.8501H47.3086C47.7779 14.8501 48.1582 14.4697 48.1582 14.0005C48.1582 13.5313 47.7779 13.1509 47.3086 13.1509H35.361V13.0048C35.361 11.3019 33.9757 9.91661 32.2729 9.91661H31.5277V9.41602C31.5277 8.63517 30.8925 8 30.1117 8H21.6614C20.8805 8 20.2453 8.63517 20.2453 9.41602V13.1509H17.4962C16.4032 13.1509 15.5138 14.0403 15.5138 15.1333V18.0622H14.534C11.2796 18.0622 8.63174 20.7099 8.63174 23.9645L8.63186 28.7128C8.63186 30.1102 9.31426 31.3509 10.3628 32.1205V64.584C10.3628 65.3648 10.998 66 11.7788 66H63.9521C64.7329 66 65.3681 65.3648 65.3681 64.584V61.4044C65.3682 60.6547 64.7822 60.041 64.0445 59.993ZM31.5277 11.6158H32.2729C33.0388 11.6158 33.6618 12.2389 33.6618 13.0048V14.1579C33.6618 14.9237 33.0388 15.5468 32.2729 15.5468H31.5277V11.6158ZM21.9447 9.69922H29.8286V15.9042C29.8286 17.0281 28.9143 17.9425 27.7904 17.9425H23.9831C22.8591 17.9425 21.9448 17.0282 21.9448 15.9042L21.9447 9.69922ZM62.6448 28.7128C62.6448 30.1057 61.5116 31.239 60.1186 31.239C58.7256 31.239 57.5924 30.1057 57.5924 28.7128V26.5242H62.6448V28.7128ZM10.331 23.9645C10.331 21.647 12.2165 19.7614 14.534 19.7614H15.5138V20.6539C15.5138 21.7469 16.4032 22.6363 17.4962 22.6363H55.4797C56.5727 22.6363 57.4621 21.7469 57.4621 20.6539V19.7614H58.4417C60.7594 19.7614 62.6449 21.6469 62.6449 23.9645V24.825H10.331V23.9645ZM55.8931 26.5242V28.7128C55.8931 30.1057 54.7599 31.239 53.367 31.239C51.9739 31.239 50.8407 30.1057 50.8407 28.7128V26.5242H55.8931ZM49.1416 26.5242V28.7128C49.1416 30.1057 48.0083 31.239 46.6154 31.239C45.2224 31.239 44.0891 30.1057 44.0891 28.7128V26.5242H49.1416ZM42.3899 26.5242V28.7128C42.3899 30.1057 41.2566 31.239 39.8637 31.239C38.4707 31.239 37.3374 30.1057 37.3374 28.7128V26.5242H42.3899ZM35.6382 26.5242V28.7128C35.6382 30.1057 34.505 31.239 33.1121 31.239C31.719 31.239 30.5858 30.1057 30.5858 28.7128V26.5242H35.6382ZM28.8867 26.5242V28.7128C28.8867 30.1057 27.7534 31.239 26.3605 31.239C24.9675 31.239 23.8342 30.1057 23.8342 28.7128V26.5242H28.8867ZM22.135 26.5242V28.7128C22.135 30.1057 21.0017 31.239 19.6088 31.239C18.2159 31.239 17.0826 30.1057 17.0826 28.7128V26.5242H22.135ZM10.3311 28.7128V26.5242H15.3835V28.7128C15.3835 30.1057 14.2503 31.239 12.8572 31.239C11.4643 31.2391 10.3311 30.1058 10.3311 28.7128ZM28.8103 64.3008H16.3862V37.8496H28.8103V64.3008ZM34.5387 59.9884C33.7579 59.9884 33.1227 60.6236 33.1227 61.4044V64.3008H30.5095V37.5664C30.5095 36.7856 29.8744 36.1504 29.0935 36.1504H16.103C15.3221 36.1504 14.687 36.7856 14.687 37.5664V64.3008H12.062V32.8622C12.3197 32.9115 12.5854 32.9383 12.8572 32.9383C14.2352 32.9383 15.4612 32.2753 16.2331 31.2514C17.0049 32.2753 18.231 32.9383 19.6089 32.9383C20.9869 32.9383 22.2128 32.2753 22.9847 31.2514C23.7565 32.2753 24.9826 32.9383 26.3606 32.9383C27.7386 32.9383 28.9645 32.2753 29.7364 31.2514C30.5082 32.2753 31.7343 32.9383 33.1123 32.9383C34.4902 32.9383 35.7162 32.2753 36.4881 31.2514C37.2598 32.2753 38.486 32.9383 39.864 32.9383C41.2419 32.9383 42.4678 32.2753 43.2397 31.2514C44.0115 32.2753 45.2377 32.9383 46.6156 32.9383C47.9936 32.9383 49.2195 32.2753 49.9914 31.2514C50.7632 32.2753 51.9894 32.9383 53.3673 32.9383C54.7453 32.9383 55.9712 32.2753 56.7431 31.2514C57.5149 32.2753 58.741 32.9383 60.119 32.9383C60.3909 32.9383 60.6565 32.9115 60.9142 32.8622V56.5863C60.7474 56.5629 60.5771 56.5499 60.4039 56.5499C60.0627 56.5499 59.725 56.5983 59.3998 56.6927C58.7819 55.5167 57.5482 54.7353 56.17 54.7353C54.8809 54.7353 53.7139 55.4182 53.0633 56.4804C52.6578 56.3267 52.227 56.2474 51.785 56.2474C50.9558 56.2474 50.1566 56.5359 49.5169 57.0462C48.8772 56.5359 48.078 56.2474 47.2488 56.2474C46.738 56.2474 46.2365 56.3561 45.775 56.5621C45.1154 55.5404 43.9698 54.8864 42.7125 54.8864C41.4677 54.8864 40.3435 55.5102 39.6796 56.5085C39.2535 56.3362 38.7974 56.2473 38.3275 56.2473C36.3166 56.2473 34.6805 57.8833 34.6805 59.8943C34.6805 59.9259 34.6829 59.9568 34.6837 59.9882H34.5387V59.9884ZM63.669 64.3008H34.8219V61.6876H40.3984C40.8677 61.6876 41.248 61.3072 41.248 60.838C41.248 60.3688 40.8677 59.9884 40.3984 59.9884H36.3824C36.3809 59.9572 36.3793 59.926 36.3793 59.8945C36.3793 58.8205 37.253 57.9467 38.3271 57.9467C38.7607 57.9467 39.1735 58.0906 39.5208 58.3627C39.7401 58.5344 40.0295 58.5879 40.2954 58.5056C40.5615 58.4234 40.7704 58.2161 40.8547 57.9508C41.1096 57.1472 41.8733 56.586 42.7121 56.586C43.5835 56.586 44.355 57.1766 44.588 58.0224C44.6657 58.3047 44.8832 58.5271 45.1638 58.6109C45.4445 58.6948 45.7483 58.6282 45.9681 58.4348C46.326 58.1202 46.7807 57.9468 47.2484 57.9468C47.8684 57.9468 48.4586 58.2522 48.8273 58.7637C48.9871 58.9852 49.2435 59.1165 49.5165 59.1165C49.7895 59.1165 50.046 58.9852 50.2057 58.7637C50.5746 58.2521 51.1649 57.9468 51.7847 57.9468C52.2071 57.9468 52.6117 58.0846 52.9548 58.3452C53.1803 58.5165 53.4765 58.5644 53.7445 58.4723C54.0124 58.3804 54.2169 58.1609 54.2898 57.8871C54.5173 57.032 55.2904 56.4346 56.1697 56.4346C57.0944 56.4346 57.8975 57.0943 58.0792 58.003C58.1342 58.2777 58.3211 58.5077 58.5787 58.6177C58.836 58.7276 59.1315 58.7037 59.368 58.5535C59.6813 58.3544 60.0393 58.2492 60.4035 58.2492C61.4071 58.2492 62.2354 59.0121 62.3397 59.9885H44.3633C43.8939 59.9885 43.5136 60.3689 43.5136 60.8381C43.5136 61.3073 43.8939 61.6877 44.3633 61.6877H63.669V64.3008Z" fill="black"/>
<path d="M18.9057 59.5933H26.2908C26.9467 59.5933 27.4803 59.0597 27.4803 58.4039V40.2495C27.4803 39.5936 26.9467 39.0601 26.2908 39.0601H18.9057C18.2498 39.0601 17.7162 39.5936 17.7162 40.2495V58.4039C17.7162 59.0597 18.2498 59.5933 18.9057 59.5933ZM23.4479 40.7593H25.7812V43.776H23.4479V40.7593ZM23.4479 45.4752H25.7812V48.4771H23.4479V45.4752ZM23.4479 50.1763H25.7812V53.1783H23.4479V50.1763ZM23.4479 54.8775H25.7812V57.8941H23.4479V54.8775ZM19.4154 40.7593H21.7487V43.776H19.4154V40.7593ZM19.4154 45.4752H21.7487V48.4771H19.4154V45.4752ZM19.4154 50.1763H21.7487V53.1783H19.4154V50.1763ZM19.4154 54.8775H21.7487V57.8941H19.4154V54.8775Z" fill="black"/>
<path d="M18.5658 62.7312H26.6307C27.1 62.7312 27.4803 62.3508 27.4803 61.8816C27.4803 61.4124 27.1 61.032 26.6307 61.032H18.5658C18.0965 61.032 17.7162 61.4124 17.7162 61.8816C17.7162 62.3508 18.0966 62.7312 18.5658 62.7312Z" fill="black"/>
<path d="M59.259 52.0934V50.2965C59.259 49.5015 58.6152 48.8547 57.8216 48.8485V45.1562C57.8216 44.687 57.4413 44.3066 56.9719 44.3066C56.5026 44.3066 56.1223 44.687 56.1223 45.1562V48.848H52.1211L52.7225 45.4395H52.7461C53.2154 45.4395 53.5957 45.0591 53.5957 44.5898C53.5957 44.1206 53.2154 43.7402 52.7461 43.7402H46.1758C45.7065 43.7402 45.3262 44.1206 45.3262 44.5898C45.3262 45.0591 45.7065 45.4395 46.1758 45.4395H46.1994L46.8008 48.848H34.8219V37.8496H56.1222V41.1914C56.1222 41.6606 56.5025 42.041 56.9718 42.041C57.4412 42.041 57.8214 41.6606 57.8214 41.1914V37.5664C57.8214 36.7856 57.1863 36.1504 56.4054 36.1504H34.5387C33.7579 36.1504 33.1227 36.7856 33.1227 37.5664V48.8485C32.3292 48.8545 31.6853 49.5015 31.6853 50.2965V52.0934C31.6853 52.8921 32.3351 53.5419 33.1338 53.5419H57.8103C58.6092 53.5419 59.259 52.8921 59.259 52.0934ZM50.9972 45.4395L50.3957 48.848H48.5261L47.9247 45.4395H50.9972ZM57.5598 51.8427H33.3845V50.5472H57.5598V51.8427Z" fill="black"/>
<path d="M35.818 17.5942C35.818 18.0634 36.1983 18.4438 36.6676 18.4438H51.8809C52.3502 18.4438 52.7305 18.0634 52.7305 17.5942C52.7305 17.125 52.3502 16.7446 51.8809 16.7446H36.6676C36.1984 16.7446 35.818 17.125 35.818 17.5942Z" fill="black"/>
</svg>
