<svg width="16" height="17" viewBox="0 0 16 17" fill="none" xmlns="http://www.w3.org/2000/svg">
<path d="M13.4 4.8H10.707C10.7524 4.56944 10.7751 4.33499 10.775 4.1C10.775 2.60269 9.67897 1.5 7.89997 1.5C6.48391 1.5 6.11866 3.01678 5.53412 3.962C5.29241 4.34991 5.00306 4.69066 4.72628 5.00116L4.72219 5.00572L4.71816 5.01034C4.23944 5.55647 3.99262 5.75 3.775 5.75H3.69128C3.51169 5.59525 3.26828 5.5 3.00003 5.5H1C0.447719 5.5 0 5.90294 0 6.4V13.6C0 14.0971 0.447719 14.5 1 14.5H3C3.26825 14.5 3.51166 14.4047 3.69125 14.25H3.77497C4.67147 14.25 5.873 15.5 7.74997 15.5H8.41556C10.37 15.5 11.5031 14.2919 11.5387 12.6517C11.9288 12.0951 12.1165 11.3772 12.0382 10.6895C12.1495 10.471 12.2328 10.2394 12.286 10H13.4C14.8198 10 16 8.8255 16 7.4C16 5.99066 14.8093 4.8 13.4 4.8ZM13.4 8.5H10.5554C10.9566 8.95841 11.0059 9.83828 10.4008 10.4078C10.7516 11.0217 10.4535 11.8336 9.99684 12.0836C10.2007 13.3063 9.68197 14 8.41559 14H7.75C6.32841 14 5.33719 12.8777 4 12.7601V7.23659C4.78872 7.14397 5.34269 6.57341 5.84609 5.99922C6.19844 5.60391 6.525 5.20859 6.80856 4.75313C7.26109 4.02225 7.62519 3 7.9 3C8.63047 3 9.275 3.275 9.275 4.1C9.275 5.2 8.45 5.75859 8.45 6.3H13.4C13.9758 6.3 14.5 6.81563 14.5 7.4C14.5 7.99297 13.993 8.5 13.4 8.5ZM2.75 12.5C2.75 12.9142 2.41422 13.25 2 13.25C1.58578 13.25 1.25 12.9142 1.25 12.5C1.25 12.0858 1.58578 11.75 2 11.75C2.41422 11.75 2.75 12.0858 2.75 12.5Z" fill="#006BA3"/>
</svg>
