<svg width="67" height="67" viewBox="0 0 67 67" fill="none" xmlns="http://www.w3.org/2000/svg">
<mask id="mask0_103_340" style="mask-type:luminance" maskUnits="userSpaceOnUse" x="0" y="0" width="67" height="67">
<path d="M0 -1.52588e-05H67V67H0V-1.52588e-05Z" fill="white"/>
</mask>
<g mask="url(#mask0_103_340)">
<path fill-rule="evenodd" clip-rule="evenodd" d="M54.5468 66.0186C56.7575 66.0186 58.5656 64.2144 58.5656 62.0086V26.063C57.1637 26.3284 9.76811 26.3176 8.43439 26.063V62.0086C8.43439 64.2144 10.2426 66.0186 12.4497 66.0186H54.5468Z" fill="#F9F7F8"/>
<path fill-rule="evenodd" clip-rule="evenodd" d="M54.6402 35.0405V64.2037C54.6402 64.8565 54.4821 65.4734 54.2017 66.0186H54.5467C56.7575 66.0186 58.5656 64.2144 58.5656 62.0086V35.6394V26.063C58.5368 26.0667 58.4937 26.0702 58.4326 26.0774C57.9869 26.1132 56.6316 26.1456 54.6402 26.1707V35.0405Z" fill="#DDDAEC"/>
<path fill-rule="evenodd" clip-rule="evenodd" d="M10.8608 19.625L23.9669 20.9341L22.3243 13.4416H14.3477C12.4281 13.4416 10.8608 15.0054 10.8608 16.9206V19.625Z" fill="#FFD772"/>
<path fill-rule="evenodd" clip-rule="evenodd" d="M44.6758 13.4415L43.0295 20.9341L56.1392 19.6248V16.9205C56.1392 15.0052 54.5683 13.4415 52.6524 13.4415H44.6758Z" fill="#FFD772"/>
<path fill-rule="evenodd" clip-rule="evenodd" d="M39.4887 29.768C39.4887 33.057 42.1811 35.7434 45.4738 35.7434C48.77 35.7434 51.4625 33.057 51.4625 29.768C51.4625 33.057 54.1586 35.7434 57.4512 35.7434C57.8322 35.7434 58.2025 35.7076 58.5655 35.6394C61.3298 35.1157 63.4399 32.6767 63.4399 29.768V24.0544C63.4399 20.7153 60.7619 19.6248 58.5655 19.6248H56.1391H44.3415C42.1882 23.3765 38.1407 25.9016 33.4999 25.9016C28.8592 25.9016 24.808 23.3765 22.6585 19.6248H10.8607H8.43432C6.23444 19.6248 3.55994 20.7153 3.55994 24.0544V29.768C3.55994 32.6767 5.66651 35.1157 8.43432 35.6394C8.79392 35.7076 9.16765 35.7434 9.54518 35.7434C12.8414 35.7434 15.5338 33.057 15.5338 29.768C15.5338 33.057 18.2298 35.7434 21.5226 35.7434C24.8153 35.7434 27.5113 33.057 27.5113 29.768C27.5113 33.057 30.2072 35.7434 33.4999 35.7434C36.7926 35.7434 39.4887 33.057 39.4887 29.768Z" fill="#EB5468"/>
<path fill-rule="evenodd" clip-rule="evenodd" d="M22.6549 19.6249C24.8081 23.3765 28.8593 25.9016 33.5 25.9016C38.1407 25.9016 42.1883 23.3765 44.3416 19.6249C45.3875 17.803 45.9879 15.6904 45.9879 13.4416C45.9879 6.55863 40.3946 0.981398 33.5 0.981398C26.6019 0.981398 21.0121 6.55863 21.0121 13.4416C21.0121 15.6904 21.6088 17.803 22.6549 19.6249Z" fill="#F9F7F8"/>
<path fill-rule="evenodd" clip-rule="evenodd" d="M54.8523 19.7542C56.6855 20.1273 58.4326 21.3538 58.4326 24.0546V27.7992V29.7682C58.4326 32.164 57.0019 34.2444 54.9494 35.1948C55.7114 35.5463 56.5597 35.7437 57.4512 35.7437C57.8322 35.7437 58.2026 35.7078 58.5656 35.6396C61.3298 35.1159 63.4399 32.677 63.4399 29.7682V24.0546C63.4399 20.7155 60.7619 19.625 58.5656 19.625H56.1392L54.8523 19.7542Z" fill="#E5384F"/>
<path fill-rule="evenodd" clip-rule="evenodd" d="M33.1405 0.98493C38.5361 2.35869 42.5298 7.24368 42.5298 13.0576C42.5298 15.3101 41.9296 17.4227 40.8835 19.2447C38.7878 22.8959 34.8912 25.385 30.4014 25.5141C31.39 25.7653 32.4288 25.9016 33.5 25.9016C37.598 25.9016 41.2357 23.9289 43.5111 20.8873C43.8131 20.4857 44.0899 20.0624 44.3416 19.6248C45.3875 17.8029 45.9879 15.6903 45.9879 13.4414C45.9879 6.55863 40.3946 0.981398 33.5 0.981398C33.3778 0.981398 33.2592 0.981398 33.1405 0.98493Z" fill="#DDDAEC"/>
<path fill-rule="evenodd" clip-rule="evenodd" d="M50.1936 40.9228H40.887C39.4419 40.9228 38.2593 42.1029 38.2593 43.5447V65.8071H52.8214V43.5447C52.8214 42.1029 51.6387 40.9228 50.1936 40.9228Z" fill="#B1E4F9"/>
<path fill-rule="evenodd" clip-rule="evenodd" d="M32.2167 57.7979V43.3902C32.2167 41.9448 31.0305 40.7612 29.5819 40.7612H16.1126C14.664 40.7612 13.4813 41.9448 13.4813 43.3902V57.7979C13.4813 59.2432 14.664 60.4233 16.1126 60.4233H29.5819C31.0305 60.4233 32.2167 59.2432 32.2167 57.7979Z" fill="#B1E4F9"/>
<path fill-rule="evenodd" clip-rule="evenodd" d="M38.2629 43.3904H44.8195H46.2646H47.1813C48.6264 43.3904 49.8089 44.5705 49.8089 46.0123V55.5098V65.8071H52.8213V43.5447C52.8213 42.1029 51.6386 40.9228 50.1935 40.9228H40.8871C39.4924 40.9228 38.3456 42.0203 38.2629 43.3904Z" fill="#75CEF8"/>
<path fill-rule="evenodd" clip-rule="evenodd" d="M20.2393 52.5864L25.4587 48.6016L23.3235 45.8147C22.2235 44.3801 20.153 44.104 18.7152 45.2014C17.2809 46.2954 17.004 48.3649 18.1004 49.796L20.2393 52.5864Z" fill="#EB5468"/>
<path fill-rule="evenodd" clip-rule="evenodd" d="M25.4587 48.6018L20.2393 52.5866L22.3745 55.3735C23.471 56.8046 25.545 57.0807 26.9793 55.9868C28.4171 54.8929 28.694 52.8233 27.594 51.3922L25.4587 48.6018Z" fill="#F9F7F8"/>
<path fill-rule="evenodd" clip-rule="evenodd" d="M21.2314 47.1417L23.3702 49.9285L23.4996 50.0972L25.4587 48.6014L23.3235 45.8147C22.2236 44.3801 20.153 44.1038 18.7151 45.2013C18.6109 45.2802 18.5139 45.3627 18.424 45.4524C19.6785 45.1045 20.3974 46.0479 21.2314 47.1417Z" fill="#E5384F"/>
<path fill-rule="evenodd" clip-rule="evenodd" d="M25.4587 48.6018L23.4996 50.0975L25.5054 52.7156C26.5227 54.0463 27.044 55.3985 25.8686 56.5391C26.2604 56.4315 26.6378 56.2486 26.9793 55.9868C28.4171 54.8929 28.694 52.8233 27.594 51.3922L25.4587 48.6018Z" fill="#DDDAEC"/>
<path d="M33.5 25.9016C40.3765 25.9016 45.9879 20.3028 45.9879 13.4414C45.9879 6.57655 40.3765 0.981398 33.5 0.981398C26.6198 0.981398 21.0121 6.57655 21.0121 13.4414C21.0121 20.3028 26.6198 25.9016 33.5 25.9016Z" stroke="black" stroke-miterlimit="10" stroke-linecap="round" stroke-linejoin="round"/>
<path fill-rule="evenodd" clip-rule="evenodd" d="M29.5818 46.0193V60.4233C31.0304 60.4233 32.2167 59.2434 32.2167 57.7979V43.3903C32.2167 41.9448 31.0304 40.7612 29.5818 40.7612H16.1126C14.664 40.7612 13.4813 41.9448 13.4813 43.3903H26.4545C27.903 43.3903 29.5853 44.5739 29.5818 46.0193Z" fill="#75CEF8"/>
<path d="M18.7151 45.2014C20.153 44.1039 22.2236 44.3802 23.3235 45.8148C24.6966 47.6081 26.2208 49.5952 27.594 51.392C28.694 52.8231 28.4172 54.8926 26.9793 55.9866C25.545 57.0804 23.471 56.8043 22.3745 55.3733L18.1005 49.7959C17.0042 48.3648 17.2809 46.2954 18.7151 45.2014Z" stroke="black" stroke-miterlimit="10" stroke-linecap="round" stroke-linejoin="round"/>
<path d="M20.2393 52.5864L25.4587 48.6016" stroke="black" stroke-miterlimit="10" stroke-linecap="round" stroke-linejoin="round"/>
<path fill-rule="evenodd" clip-rule="evenodd" d="M31.1096 15.8229V19.571C31.1096 19.7647 31.2677 19.926 31.4619 19.926H35.5346C35.7287 19.926 35.8904 19.7647 35.8904 19.571V15.8229H39.6433C39.8374 15.8229 39.9991 15.6651 39.9991 15.4714V11.4077C39.9991 11.2141 39.8374 11.0562 39.6433 11.0562H35.8904V7.30817C35.8904 7.1145 35.7287 6.95668 35.5346 6.95668H31.4619C31.2677 6.95668 31.1096 7.1145 31.1096 7.30817V11.0562H27.3531C27.1591 11.0562 27.0009 11.2141 27.0009 11.4077V15.4714C27.0009 15.6651 27.1591 15.8229 27.3531 15.8229H31.1096Z" fill="#EB5468"/>
<path fill-rule="evenodd" clip-rule="evenodd" d="M39.6433 11.0565H35.8904V7.30841C35.8904 7.11474 35.7287 6.95692 35.5346 6.95692H32.4432C33.6654 8.87938 34.3735 11.1641 34.3735 13.6102C34.3735 15.8627 33.7732 17.9752 32.7271 19.7972C32.702 19.8403 32.6769 19.8833 32.6516 19.9263H35.5346C35.7287 19.9263 35.8904 19.7649 35.8904 19.5712V15.8232H39.6433C39.8374 15.8232 39.9991 15.6654 39.9991 15.4717V11.408C39.9991 11.2143 39.8374 11.0565 39.6433 11.0565Z" fill="#E5384F"/>
<path d="M31.4619 6.95692H35.5346C35.7287 6.95692 35.8904 7.11474 35.8904 7.30841V11.0565H39.6433C39.8374 11.0565 39.9991 11.2143 39.9991 11.408V15.4717C39.9991 15.6654 39.8374 15.8232 39.6433 15.8232H35.8904V19.5712C35.8904 19.7649 35.7287 19.9263 35.5346 19.9263H31.4619C31.2678 19.9263 31.1096 19.7649 31.1096 19.5712V15.8232H27.3531C27.1591 15.8232 27.0009 15.6654 27.0009 15.4717V11.408C27.0009 11.2143 27.1591 11.0565 27.3531 11.0565H31.1096V7.30841C31.1096 7.11474 31.2678 6.95692 31.4619 6.95692Z" stroke="black" stroke-miterlimit="10" stroke-linecap="round" stroke-linejoin="round"/>
<path d="M52.8213 66.0186V43.5445C52.8213 42.1027 51.6423 40.9226 50.1935 40.9226H40.8871C39.442 40.9226 38.2593 42.1027 38.2593 43.5445V66.0186" stroke="black" stroke-miterlimit="10" stroke-linecap="round" stroke-linejoin="round"/>
<path d="M42.2207 53.2393H42.1956" stroke="black" stroke-miterlimit="10" stroke-linecap="round" stroke-linejoin="round"/>
<path fill-rule="evenodd" clip-rule="evenodd" d="M52.8212 66.0186H63.1235V48.824H52.8212V66.0186Z" fill="#FFD772"/>
<path d="M8.43439 42.9385V35.6397M8.43439 55.1834V47.3178M52.8212 66.0188H14.9767M58.5656 44.2261V48.8243M58.5656 35.6397V39.8433" stroke="black" stroke-miterlimit="10" stroke-linecap="round" stroke-linejoin="round"/>
<path fill-rule="evenodd" clip-rule="evenodd" d="M10.3971 53.7702C13.5425 53.7702 16.1162 56.3383 16.1162 59.4766V66.0188H4.67438V59.4766C4.67438 56.3383 7.25178 53.7702 10.3971 53.7702Z" fill="#A7E9A6"/>
<path fill-rule="evenodd" clip-rule="evenodd" d="M12.4605 59.3976V65.9361H4.67432V66.0186H13.3123H16.1163V59.5159V59.4765C16.1163 57.9163 15.4836 56.4996 14.4555 55.4666C13.4166 54.4193 11.9788 53.7701 10.3971 53.7701C9.86145 53.7701 9.3439 53.8454 8.85135 53.9817C8.79743 53.9996 8.74352 54.014 8.68961 54.032C8.74352 54.0499 8.79743 54.0714 8.85135 54.0928C10.9615 54.9358 12.4605 56.9982 12.4605 59.3976Z" fill="#7FDBAE"/>
<path d="M10.3971 53.7702C13.5425 53.7702 16.1162 56.3383 16.1162 59.4766V66.0188H4.67438V59.4766C4.67438 56.3383 7.25178 53.7702 10.3971 53.7702Z" stroke="black" stroke-miterlimit="10" stroke-linecap="round" stroke-linejoin="round"/>
<path d="M13.4813 54.6739V43.3902C13.4813 41.9448 14.664 40.7612 16.1126 40.7612H29.5819C31.0305 40.7612 32.2167 41.9448 32.2167 43.3902V57.7979C32.2167 59.2432 31.0305 60.4233 29.5819 60.4233H16.1162" stroke="black" stroke-miterlimit="10" stroke-linecap="round" stroke-linejoin="round"/>
<path d="M56.9803 53.2393H58.9646" stroke="black" stroke-miterlimit="10" stroke-linecap="round" stroke-linejoin="round"/>
<path d="M56.9803 57.5503H58.9646" stroke="black" stroke-miterlimit="10" stroke-linecap="round" stroke-linejoin="round"/>
<path d="M56.9803 61.865H58.9646" stroke="black" stroke-miterlimit="10" stroke-linecap="round" stroke-linejoin="round"/>
<path fill-rule="evenodd" clip-rule="evenodd" d="M60.5535 66.0186H63.1237V48.824H60.5535V66.0186Z" fill="#FBBA58"/>
<path d="M52.8212 66.0186H63.1235V48.824H52.8212V66.0186Z" stroke="black" stroke-miterlimit="10" stroke-linecap="round" stroke-linejoin="round"/>
<path fill-rule="evenodd" clip-rule="evenodd" d="M47.095 13.4414C49.0145 13.4414 50.5819 15.0052 50.5819 16.9204V19.6248H56.1392V16.9204C56.1392 15.0052 54.5682 13.4414 52.6523 13.4414H47.095Z" fill="#FBBA58"/>
<path d="M45.9879 13.4414H52.6524C54.5683 13.4414 56.1392 15.0052 56.1392 16.9204V19.6248M10.8608 19.6248V16.9204C10.8608 15.0052 12.4281 13.4414 14.3477 13.4414H21.0122" stroke="black" stroke-miterlimit="10" stroke-linecap="round" stroke-linejoin="round"/>
<path d="M44.3415 19.6249H58.5655C60.7619 19.6249 63.4399 20.7154 63.4399 24.0545V29.7681C63.4399 33.0571 60.7439 35.7434 57.4513 35.7434C54.1586 35.7434 51.4625 33.0571 51.4625 29.7681C51.4625 33.0571 48.77 35.7434 45.4738 35.7434C42.1811 35.7434 39.4887 33.0571 39.4887 29.7681C39.4887 33.0571 36.7926 35.7434 33.4999 35.7434C30.2072 35.7434 27.5113 33.0571 27.5113 29.7681C27.5113 33.0571 24.8153 35.7434 21.5226 35.7434C18.2298 35.7434 15.5338 33.0571 15.5338 29.7681C15.5338 33.0571 12.8414 35.7434 9.54872 35.7434H9.54519C6.25237 35.7434 3.55994 33.0571 3.55994 29.7681V24.0545C3.55994 20.7154 6.23444 19.6249 8.43432 19.6249H22.6585" stroke="black" stroke-miterlimit="10" stroke-linecap="round" stroke-linejoin="round"/>
</g>
</svg>
