<svg width="56" height="56" viewBox="0 0 56 56" fill="none" xmlns="http://www.w3.org/2000/svg">
<g clip-path="url(#clip0_103_490)">
<path fill-rule="evenodd" clip-rule="evenodd" d="M17.2321 19.5529H22.7697L24.4147 14.5752H19.6996L17.2321 19.5529Z" fill="#FC6E51"/>
<path fill-rule="evenodd" clip-rule="evenodd" d="M22.7697 19.5529H28.3085L29.131 14.5752H24.4147L22.7697 19.5529Z" fill="#FC6E51"/>
<path fill-rule="evenodd" clip-rule="evenodd" d="M28.3084 19.5529H33.8461V14.5752H29.1309L28.3084 19.5529Z" fill="#FC6E51"/>
<path fill-rule="evenodd" clip-rule="evenodd" d="M33.8461 19.5529H39.3838L38.5613 14.5752H33.8461V19.5529Z" fill="#FC6E51"/>
<path fill-rule="evenodd" clip-rule="evenodd" d="M39.3837 19.5529H44.9214L43.2764 14.5752H38.5612L39.3837 19.5529Z" fill="#FC6E51"/>
<path fill-rule="evenodd" clip-rule="evenodd" d="M44.9214 19.5529H50.4602L47.9916 14.5752H43.2764L44.9214 19.5529Z" fill="#FC6E51"/>
<path fill-rule="evenodd" clip-rule="evenodd" d="M14.2286 45.7229H53.4625C54.1964 45.7229 54.7969 46.3234 54.7969 47.0573V48.3916H12.8953V47.0573C12.8953 46.3234 13.4958 45.7229 14.2286 45.7229Z" fill="#FC6E51"/>
<path fill-rule="evenodd" clip-rule="evenodd" d="M27.1502 7.51514H40.542C40.9238 7.51514 41.2366 7.82795 41.2366 8.20967V16.369C41.2366 16.7508 40.9238 17.0636 40.542 17.0636H27.1502C26.7684 17.0636 26.4556 16.7508 26.4556 16.369V8.20967C26.4545 7.82795 26.7673 7.51514 27.1502 7.51514Z" fill="#69D6F4"/>
<path fill-rule="evenodd" clip-rule="evenodd" d="M14.945 19.553H52.7461C53.4308 19.553 53.9908 20.113 53.9908 20.7977C53.9908 21.4824 53.4308 22.0424 52.7461 22.0424H14.945C14.2603 22.0424 13.7003 21.4824 13.7003 20.7977C13.7014 20.113 14.2614 19.553 14.945 19.553Z" fill="#FCD770"/>
<path fill-rule="evenodd" clip-rule="evenodd" d="M14.5316 22.0422H53.1606V45.723H14.5316V22.0422Z" fill="#FCD770"/>
<path fill-rule="evenodd" clip-rule="evenodd" d="M17.2321 22.0422H22.7697V28.0415C22.7697 29.564 21.5239 30.8108 20.0003 30.8108C18.4778 30.8108 17.231 29.5651 17.231 28.0415V22.0422H17.2321Z" fill="#FC6E51"/>
<path fill-rule="evenodd" clip-rule="evenodd" d="M22.7697 22.0422H28.3074V28.0415C28.3074 29.564 27.0616 30.8108 25.538 30.8108C24.0144 30.8108 22.7686 29.5651 22.7686 28.0415V22.0422H22.7697Z" fill="#FC6E51"/>
<path fill-rule="evenodd" clip-rule="evenodd" d="M28.3084 22.0422H33.8461V28.0415C33.8461 29.564 32.6003 30.8108 31.0767 30.8108C29.5542 30.8108 28.3073 29.5651 28.3073 28.0415V22.0422H28.3084Z" fill="#FC6E51"/>
<path fill-rule="evenodd" clip-rule="evenodd" d="M33.8461 22.0422H39.3837V28.0415C39.3837 29.564 38.138 30.8108 36.6144 30.8108C35.0919 30.8108 33.845 29.5651 33.845 28.0415V22.0422H33.8461Z" fill="#FC6E51"/>
<path fill-rule="evenodd" clip-rule="evenodd" d="M39.3838 22.0422H44.9214V28.0415C44.9214 29.564 43.6756 30.8108 42.152 30.8108C40.6295 30.8108 39.3827 29.5651 39.3827 28.0415V22.0422H39.3838Z" fill="#FC6E51"/>
<path fill-rule="evenodd" clip-rule="evenodd" d="M44.9214 22.0422H50.4591V28.0415C50.4591 29.564 49.2133 30.8108 47.6897 30.8108C46.1672 30.8108 44.9203 29.5651 44.9203 28.0415V22.0422H44.9214Z" fill="#FC6E51"/>
<path fill-rule="evenodd" clip-rule="evenodd" d="M22.7587 28.2832H22.7806C22.9042 29.6941 24.0975 30.8098 25.5391 30.8098C26.9806 30.8098 28.1739 29.693 28.2975 28.2832H28.3194C28.443 29.6941 29.6363 30.8098 31.0778 30.8098C32.5194 30.8098 33.7127 29.693 33.8362 28.2832H33.8581C33.9817 29.6941 35.175 30.8098 36.6166 30.8098C38.0581 30.8098 39.2514 29.693 39.375 28.2832H39.3969C39.5205 29.6941 40.7138 30.8098 42.1553 30.8098C43.5969 30.8098 44.7902 29.693 44.9137 28.2832H44.9356C45.0592 29.6941 46.2525 30.8098 47.6941 30.8098C48.3339 30.8098 48.9245 30.5899 49.3948 30.2213V45.722H18.2995V30.2224C18.7698 30.591 19.3605 30.8109 20.0003 30.8109C21.4419 30.8109 22.6352 29.6941 22.7587 28.2832Z" fill="#E6E7E7"/>
<path fill-rule="evenodd" clip-rule="evenodd" d="M21.9384 34.0562H30.9105V45.7221H21.9384V34.0562Z" fill="#999999"/>
<path fill-rule="evenodd" clip-rule="evenodd" d="M34.6063 34.0562H46.0338V39.8618H34.6063V34.0562Z" fill="#69D6F4"/>
<path d="M28.7098 41.8295C29.155 41.8295 29.5159 41.4686 29.5159 41.0234C29.5159 40.5782 29.155 40.2173 28.7098 40.2173C28.2646 40.2173 27.9037 40.5782 27.9037 41.0234C27.9037 41.4686 28.2646 41.8295 28.7098 41.8295Z" fill="#999999"/>
<path d="M23.7665 44.6089C28.9289 39.4465 28.9289 31.0765 23.7665 25.9141C18.604 20.7516 10.234 20.7516 5.07161 25.9141C-0.0908331 31.0765 -0.0908328 39.4465 5.07161 44.6089C10.234 49.7713 18.604 49.7713 23.7665 44.6089Z" fill="#FCD770"/>
<path fill-rule="evenodd" clip-rule="evenodd" d="M22.6833 29.7095L21.7853 32.7753L20.3208 37.7803H15.5816H10.8413L9.37673 32.7753L8.47876 29.7095H22.6833Z" fill="#FC6E51"/>
<path d="M13.3071 43.6713C13.9889 43.5102 14.4109 42.8268 14.2498 42.145C14.0886 41.4632 13.4052 41.0412 12.7234 41.2023C12.0417 41.3635 11.6196 42.0468 11.7808 42.7286C11.9419 43.4104 12.6253 43.8325 13.3071 43.6713Z" fill="#FC6E51"/>
<path d="M18.4518 43.6701C19.1336 43.5089 19.5557 42.8256 19.3945 42.1438C19.2333 41.462 18.55 41.0399 17.8682 41.2011C17.1864 41.3623 16.7643 42.0456 16.9255 42.7274C17.0867 43.4092 17.77 43.8313 18.4518 43.6701Z" fill="#FC6E51"/>
<path fill-rule="evenodd" clip-rule="evenodd" d="M11.9678 35.9176V31.512C11.9678 31.15 12.262 30.8558 12.6241 30.8558C12.9861 30.8558 13.2803 31.15 13.2803 31.512V35.9176C13.2803 36.2808 12.9861 36.5739 12.6241 36.5739C12.262 36.5739 11.9678 36.2808 11.9678 35.9176ZM17.8817 35.9176V31.512C17.8817 31.15 18.1759 30.8558 18.538 30.8558C18.9 30.8558 19.1942 31.15 19.1942 31.512V35.9176C19.1942 36.2808 18.9 36.5739 18.538 36.5739C18.1759 36.5739 17.8817 36.2808 17.8817 35.9176ZM14.9253 35.9176V31.512C14.9253 31.15 15.2195 30.8558 15.5816 30.8558C15.9436 30.8558 16.2378 31.15 16.2378 31.512V35.9176C16.2378 36.2808 15.9436 36.5739 15.5816 36.5739C15.2184 36.5739 14.9253 36.2808 14.9253 35.9176ZM13.008 43.0631C12.67 43.0631 12.3955 42.7886 12.3955 42.4506C12.3955 42.1126 12.67 41.8381 13.008 41.8381C13.3459 41.8381 13.6205 42.1126 13.6205 42.4506C13.6205 42.7886 13.3459 43.0631 13.008 43.0631ZM21.8072 30.3658H9.35484L11.3323 37.124H19.8286L21.8072 30.3658ZM18.1541 43.0631C17.8161 43.0631 17.5416 42.7886 17.5416 42.4506C17.5416 42.1126 17.8161 41.8381 18.1541 41.8381C18.492 41.8381 18.7666 42.1126 18.7666 42.4506C18.7666 42.7886 18.492 43.0631 18.1541 43.0631ZM14.4003 41.125H16.7617C16.4325 41.4706 16.2291 41.9365 16.2291 42.4506C16.2291 43.5115 17.092 44.3756 18.1541 44.3756C19.215 44.3756 20.078 43.5115 20.078 42.4506C20.078 41.9365 19.8745 41.4706 19.5453 41.125H20.3208C20.6828 41.125 20.977 40.8308 20.977 40.4687C20.977 40.1067 20.6828 39.8125 20.3208 39.8125H10.745C10.3655 39.8125 10.057 39.504 10.057 39.1245C10.057 38.745 10.3655 38.4365 10.745 38.4365C10.7658 38.4365 10.7855 38.4355 10.8052 38.4333C10.8172 38.4344 10.8281 38.4365 10.8402 38.4365H20.3197C20.6106 38.4365 20.8677 38.244 20.9497 37.9651L23.3111 29.8933C23.3691 29.6953 23.3308 29.4809 23.2061 29.3158C23.0825 29.1506 22.8878 29.0533 22.6811 29.0533H8.97094L8.54109 27.5854C8.45906 27.3054 8.20312 27.114 7.91109 27.114H6.16547C5.80344 27.114 5.50922 27.4072 5.50922 27.7703C5.50922 28.1323 5.80344 28.4265 6.16547 28.4265H7.42L7.84984 29.8933L10.0078 37.2673C9.26953 37.5615 8.74562 38.2823 8.74562 39.1245C8.74562 40.2281 9.6425 41.125 10.7461 41.125H11.6178C11.2886 41.4706 11.0852 41.9365 11.0852 42.4506C11.0852 43.5115 11.9481 44.3756 13.0102 44.3756C14.0711 44.3756 14.9352 43.5115 14.9352 42.4506C14.933 41.9365 14.7295 41.4706 14.4003 41.125ZM36.1233 15.0226C36.1233 15.3858 35.8291 15.6789 35.467 15.6789C35.105 15.6789 34.8086 15.3858 34.8086 15.0226C34.8086 14.6606 35.1006 14.3664 35.4627 14.3664H35.467C35.8291 14.3664 36.1233 14.6606 36.1233 15.0226ZM34.0298 15.0226C34.0298 15.3858 33.7356 15.6789 33.3736 15.6789C33.0116 15.6789 32.7152 15.3858 32.7152 15.0226C32.7152 14.6606 33.0072 14.3664 33.3692 14.3664H33.3736C33.7356 14.3664 34.0298 14.6606 34.0298 15.0226ZM29.8211 9.55717C29.8211 9.19404 30.1153 8.90092 30.4773 8.90092H31.3983C31.6892 8.90092 31.9462 9.09232 32.0283 9.37232L33.0433 12.8417H35.7919L36.3377 10.9769H33.3703C33.0083 10.9769 32.7141 10.6826 32.7141 10.3206C32.7141 9.95748 33.0083 9.66436 33.3703 9.66436H37.2137C37.4205 9.66436 37.6152 9.7617 37.7388 9.92686C37.8623 10.092 37.9017 10.3064 37.8438 10.5044L36.9141 13.6828C36.832 13.9617 36.5761 14.1542 36.2841 14.1542H32.5522C32.2602 14.1542 32.0042 13.9617 31.9222 13.6828L30.9072 10.2134H30.4784C30.1153 10.2134 29.8211 9.9192 29.8211 9.55717ZM44.8744 35.7229C45.0166 36.0565 44.8612 36.4415 44.5277 36.5837L39.3225 38.7986C39.2383 38.8336 39.1519 38.8511 39.0655 38.8511C38.8106 38.8511 38.5678 38.7012 38.4617 38.4508C38.3195 38.1172 38.4748 37.7322 38.8084 37.59L44.0136 35.3762C44.3472 35.234 44.7322 35.3894 44.8744 35.7229ZM28.7098 40.8745C28.7908 40.8745 28.8597 40.9423 28.8597 41.0233C28.8597 41.1042 28.7908 41.1731 28.7098 41.1731C28.6289 41.1731 28.56 41.1042 28.56 41.0233C28.56 40.9423 28.6289 40.8745 28.7098 40.8745ZM28.7098 42.4856C29.5159 42.4856 30.1722 41.8305 30.1722 41.0233C30.1722 40.2172 29.5159 39.562 28.7098 39.562C27.9037 39.562 27.2475 40.2172 27.2475 41.0233C27.2475 41.8305 27.9037 42.4856 28.7098 42.4856ZM35.2625 34.7123V39.2055H45.3786V34.7123H42.0087L36.9261 36.8747C36.8419 36.9108 36.7555 36.9272 36.6702 36.9272C36.4142 36.9272 36.1725 36.7773 36.0653 36.528C35.9231 36.1944 36.0784 35.8083 36.412 35.6672L38.6553 34.7123H35.2625ZM34.6063 40.518H46.0338C46.3958 40.518 46.69 40.2248 46.69 39.8617V34.0561C46.69 33.694 46.3958 33.3998 46.0338 33.3998H34.6063C34.2442 33.3998 33.95 33.694 33.95 34.0561V39.8617C33.95 40.2248 34.2431 40.518 34.6063 40.518ZM54.1406 47.8286H20.3109C21.1181 47.449 21.8827 46.994 22.5958 46.4723H53.4625C53.8366 46.4723 54.1406 46.7764 54.1406 47.1505V47.8286ZM1.85938 35.2636C1.85938 42.1925 7.49656 47.8286 14.4244 47.8286C21.3533 47.8286 26.9894 42.1925 26.9894 35.2636C26.9894 28.3347 21.3522 22.6986 14.4244 22.6986C7.49656 22.6986 1.85938 28.3347 1.85938 35.2636ZM14.945 20.2103H52.7461C53.0709 20.2103 53.3345 20.4739 53.3345 20.7976C53.3345 21.1225 53.0709 21.3861 52.7461 21.3861H14.945C14.6202 21.3861 14.3566 21.1225 14.3566 20.7976C14.3577 20.4739 14.6213 20.2103 14.945 20.2103ZM20.1064 15.2315H23.5069L22.295 18.8978H18.2897L20.1064 15.2315ZM27.1502 17.7209H27.9453L27.7506 18.8978H23.6775L24.8894 15.2315H25.7983V16.369C25.7983 17.115 26.4053 17.7209 27.1502 17.7209ZM27.1108 8.20967V16.369C27.1108 16.3898 27.1294 16.4084 27.1502 16.4084H40.542C40.5617 16.4084 40.5814 16.3898 40.5814 16.369V8.20967C40.5814 8.18998 40.5628 8.17139 40.542 8.17139H27.1502C27.1305 8.17139 27.1108 8.18998 27.1108 8.20967ZM34.5023 17.7209H38.4158L38.6105 18.8978H34.5023V17.7209ZM33.1898 17.7209V18.8978H29.0817L29.2764 17.7209H33.1898ZM42.8028 15.2315L44.0147 18.8978H39.9416L39.7469 17.7209H40.542C41.2869 17.7209 41.8928 17.115 41.8928 16.369V15.2315H42.8028ZM49.4025 18.8978H45.3961L44.1842 15.2315H47.5847L49.4025 18.8978ZM50.0478 30.5233C50.7052 29.8987 51.1153 29.0172 51.1153 28.0415V22.6986H52.5033V45.1598H50.0478V30.5233ZM30.9105 33.4009C31.2725 33.4009 31.5667 33.694 31.5667 34.0572V45.1598H48.7353V31.3031C48.4061 31.4092 48.055 31.4672 47.6908 31.4672C46.5533 31.4672 45.5448 30.9094 44.9214 30.0551C44.298 30.9094 43.2895 31.4672 42.152 31.4672C41.0145 31.4672 40.0061 30.9094 39.3827 30.0551C38.7592 30.9094 37.7508 31.4672 36.6133 31.4672C35.4758 31.4672 34.4673 30.9094 33.8439 30.0551C33.2205 30.9094 32.212 31.4672 31.0745 31.4672C29.9359 31.4672 28.9264 30.9083 28.3041 30.0519C28.0984 30.3351 27.8502 30.5878 27.5625 30.7989C27.8469 31.6334 28.0536 32.504 28.1739 33.4009H30.9105ZM28.3019 35.2636C28.3019 39.1344 26.7072 42.6398 24.1423 45.1598H30.2542V34.7134H28.2898C28.2975 34.8961 28.3019 35.0787 28.3019 35.2636ZM33.1898 28.0415C33.1898 29.2064 32.2416 30.1547 31.0767 30.1547C29.9119 30.1547 28.9636 29.2064 28.9636 28.0415V22.6986H33.1888V28.0415H33.1898ZM49.8039 22.6986V28.0415C49.8039 29.2064 48.8567 30.1547 47.6908 30.1547C46.5259 30.1547 45.5777 29.2064 45.5777 28.0415V22.6986H49.8039ZM44.2652 22.6986V28.0415C44.2652 29.2064 43.3169 30.1547 42.152 30.1547C40.9872 30.1547 40.0389 29.2064 40.0389 28.0415V22.6986H44.2652ZM38.7275 22.6986V28.0415C38.7275 29.2064 37.7792 30.1547 36.6144 30.1547C35.4495 30.1547 34.5013 29.2064 34.5013 28.0415V22.6986H38.7275ZM23.4259 22.6986H27.6511V28.0415C27.6511 28.5961 27.4302 29.12 27.0517 29.5105C26.203 27.6565 24.9583 26.0203 23.4259 24.7111V22.6986ZM20.3109 22.6986H22.1134V23.7169C21.5414 23.3351 20.9387 22.9939 20.3109 22.6986ZM53.8169 45.1937V22.3672C54.3178 22.0248 54.647 21.4495 54.647 20.7976C54.647 19.7498 53.7939 18.8978 52.7461 18.8978H50.867L48.58 14.2844C48.4695 14.0601 48.242 13.919 47.9916 13.919H41.8928V8.20967C41.8928 7.46482 41.2869 6.85889 40.542 6.85889H27.1502C26.4053 6.85889 25.7994 7.46482 25.7994 8.20967V13.919H19.7006C19.4513 13.919 19.2238 14.0601 19.1122 14.2844L16.8252 18.8978H14.9461C13.8983 18.8978 13.0452 19.7498 13.0452 20.7976C13.0452 21.0251 13.0878 21.2417 13.1611 21.444C6.09875 22.085 0.546875 28.0372 0.546875 35.2636C0.546875 42.9155 6.7725 49.1411 14.4244 49.1411C14.4419 49.1411 14.4594 49.1411 14.4769 49.14C14.4812 49.1411 14.4856 49.1411 14.49 49.1411H54.7969C55.1589 49.1411 55.4531 48.8469 55.4531 48.4848V47.1505C55.4531 46.1737 54.7455 45.3611 53.8169 45.1937Z" fill="#222124"/>
</g>
<defs>
<clipPath id="clip0_103_490">
<rect width="56" height="56" fill="white"/>
</clipPath>
</defs>
</svg>
