<svg width="72" height="72" viewBox="0 0 72 72" fill="none" xmlns="http://www.w3.org/2000/svg">
<path fill-rule="evenodd" clip-rule="evenodd" d="M12.4046 50.4854C13.2228 36.8031 18.1228 25.3446 26.0388 15.5293L30.2481 17.2671C22.7653 27.8718 18.4576 38.9336 17.5571 50.4856H12.4046V50.4854Z" fill="#F0B16E"/>
<path fill-rule="evenodd" clip-rule="evenodd" d="M27.8882 36.9602H44.312V48.5534H27.8882V36.9602Z" fill="#FFE177"/>
<path fill-rule="evenodd" clip-rule="evenodd" d="M26.6001 33.7397H44.312V38.2482H26.6001C25.3603 38.2482 24.3459 37.2339 24.3459 35.9939C24.3458 34.7542 25.3601 33.7397 26.6001 33.7397Z" fill="#4187B5"/>
<path fill-rule="evenodd" clip-rule="evenodd" d="M11.1164 51.21H43.9638V62.8031H11.1164V51.21Z" fill="#FFE177"/>
<path fill-rule="evenodd" clip-rule="evenodd" d="M11.3707 61.3542H43.7095C46.9418 61.3542 49.5864 63.9988 49.5864 67.2312H5.4939C5.4939 63.9988 8.13846 61.3542 11.3707 61.3542Z" fill="#4187B5"/>
<path fill-rule="evenodd" clip-rule="evenodd" d="M9.82829 47.9895H45.252C46.4919 47.9895 47.5063 49.0038 47.5063 50.2438C47.5063 51.4837 46.492 52.498 45.252 52.498H9.82829C8.58845 52.498 7.57397 51.4837 7.57397 50.2437C7.57397 49.0038 8.58845 47.9895 9.82829 47.9895Z" fill="#4187B5"/>
<path fill-rule="evenodd" clip-rule="evenodd" d="M19.0532 12.2947C15.4827 12.2947 12.3512 14.1723 10.5911 16.994H27.5154C25.7554 14.1724 22.6238 12.2947 19.0532 12.2947Z" fill="#19CFBA"/>
<path fill-rule="evenodd" clip-rule="evenodd" d="M24.8547 7.68736C22.3299 5.16261 18.7878 4.276 15.5481 5.02667L27.5154 16.9939C28.266 13.7542 27.3794 10.2121 24.8547 7.68736Z" fill="#19CFBA"/>
<path fill-rule="evenodd" clip-rule="evenodd" d="M36.4938 12.2947C40.0643 12.2947 43.1958 14.1723 44.9559 16.994H28.0316C29.7917 14.1724 32.9233 12.2947 36.4938 12.2947Z" fill="#19CFBA"/>
<path fill-rule="evenodd" clip-rule="evenodd" d="M30.6924 7.68736C33.2172 5.16261 36.7593 4.276 39.999 5.02667L28.0318 16.9939C27.2809 13.7542 28.1675 10.2121 30.6924 7.68736Z" fill="#19CFBA"/>
<path d="M27.1411 19.9255C27.5092 18.3681 26.5451 16.807 24.9877 16.4389C23.4302 16.0707 21.8692 17.0349 21.501 18.5923C21.1329 20.1498 22.097 21.7108 23.6544 22.079C25.2119 22.4471 26.7729 21.483 27.1411 19.9255Z" fill="#FFE177"/>
<path d="M32.1603 21.2984C33.292 20.1667 33.292 18.3319 32.1603 17.2002C31.0286 16.0685 29.1938 16.0685 28.0621 17.2002C26.9304 18.3319 26.9304 20.1667 28.0621 21.2984C29.1938 22.43 31.0286 22.43 32.1603 21.2984Z" fill="#FFE177"/>
<path d="M28.8282 17.6381C30.4289 17.6381 31.7265 16.3405 31.7265 14.7398C31.7265 13.1392 30.4289 11.8416 28.8282 11.8416C27.2275 11.8416 25.9299 13.1392 25.9299 14.7398C25.9299 16.3405 27.2275 17.6381 28.8282 17.6381Z" fill="#FFE177"/>
<path fill-rule="evenodd" clip-rule="evenodd" d="M44.6731 48.0192C48.1078 48.9395 50.1651 52.5027 49.2447 55.9374L46.3114 67.2312H36.3514L31.8468 65.9821C28.4121 65.0618 26.3549 61.4986 27.2752 58.0639C28.4822 53.559 32.4759 52.7641 36.4248 53.8222C37.4831 49.8732 40.1684 46.8121 44.6731 48.0192Z" fill="#19CFBA"/>
<path fill-rule="evenodd" clip-rule="evenodd" d="M42.0316 32.4515L54.2689 20.3118L66.5061 32.4515V64.8687C66.5061 66.168 65.4431 67.2311 64.1437 67.2311H42.0316V32.4515Z" fill="#4187B5"/>
<path fill-rule="evenodd" clip-rule="evenodd" d="M60.3876 67.2311H48.1503V57.8606C48.1503 57.3465 48.5708 56.926 49.0849 56.926H59.4532C59.9673 56.926 60.3877 57.3465 60.3877 57.8606V67.2311H60.3876Z" fill="#FFE177"/>
<path fill-rule="evenodd" clip-rule="evenodd" d="M50.0825 34.3838C51.3223 34.3838 52.3368 35.3981 52.3368 36.638V39.5363H47.8282V36.638C47.8282 35.3981 48.8425 34.3838 50.0825 34.3838Z" fill="#FFE177"/>
<path fill-rule="evenodd" clip-rule="evenodd" d="M58.4554 34.3838C59.6952 34.3838 60.7095 35.3981 60.7095 36.638V39.5363H56.201V36.638C56.201 35.3981 57.2154 34.3838 58.4554 34.3838Z" fill="#FFE177"/>
<path fill-rule="evenodd" clip-rule="evenodd" d="M50.0825 44.2698C51.3223 44.2698 52.3368 45.2841 52.3368 46.524V49.4222H47.8282V46.524C47.8282 45.2841 48.8425 44.2698 50.0825 44.2698Z" fill="#FFE177"/>
<path fill-rule="evenodd" clip-rule="evenodd" d="M58.4554 44.2698C59.6952 44.2698 60.7095 45.2841 60.7095 46.524V49.4222H56.201V46.524C56.201 45.2841 57.2154 44.2698 58.4554 44.2698Z" fill="#FFE177"/>
<path fill-rule="evenodd" clip-rule="evenodd" d="M32.3967 43.7328C31.8577 43.7328 31.4207 43.2958 31.4207 42.7568C31.4207 42.2178 31.8577 41.7808 32.3967 41.7808H36.9052C37.4442 41.7808 37.8812 42.2178 37.8812 42.7568C37.8812 43.2958 37.4442 43.7328 36.9052 43.7328H32.3967ZM15.6249 57.9825C15.0859 57.9825 14.6489 57.5454 14.6489 57.0065C14.6489 56.4675 15.0859 56.0304 15.6249 56.0304H20.1334C20.6724 56.0304 21.1094 56.4675 21.1094 57.0065C21.1094 57.5454 20.6724 57.9825 20.1334 57.9825H15.6249Z" fill="#19CFBA"/>
</svg>
