<svg width="52" height="52" viewBox="0 0 52 52" fill="none" xmlns="http://www.w3.org/2000/svg">
<path d="M4.22369 16.5819V19.0453C4.22369 19.8069 4.84109 20.4243 5.60271 20.4243H46.3973C47.1589 20.4243 47.7763 19.8069 47.7763 19.0453V16.5819C47.7763 15.8203 47.1589 15.2029 46.3973 15.2029H5.60271C4.84109 15.2029 4.22369 15.8203 4.22369 16.5819Z" fill="#3872B7"/>
<path d="M24.3446 15.4048C24.2936 15.3378 24.2456 15.2705 24.1993 15.2031H17.7201L16.8668 16.0673C16.5573 16.3807 16.4956 16.8621 16.7158 17.2435L18.0508 19.5559C18.271 19.9373 18.7189 20.1245 19.145 20.0132L21.9045 19.2925C22.461 19.722 23.0753 20.0799 23.7347 20.3514L23.7547 20.4245H29.7807L29.8008 20.3514C30.4601 20.0797 31.0744 19.722 31.6309 19.2925L34.3904 20.0132C34.8164 20.1245 35.2644 19.9374 35.4846 19.5559L36.8197 17.2435C37.0399 16.8621 36.978 16.3806 36.6686 16.0673L35.8153 15.2031H29.2183C28.1308 16.4019 26.176 16.7996 24.3446 15.4048Z" fill="#254E87"/>
<path d="M46.3973 15.2029H43.4612C44.2228 15.2029 44.8402 15.8203 44.8402 16.5818V19.0453C44.8402 19.8068 44.2228 20.4242 43.4612 20.4242H46.3973C47.1589 20.4242 47.7763 19.8068 47.7763 19.0453V16.5818C47.7763 15.8203 47.1589 15.2029 46.3973 15.2029Z" fill="#254E87"/>
<path d="M44.2124 20.4243H7.78763V48.7046H44.2124V20.4243Z" fill="#EBEEF2"/>
<path d="M44.2124 20.4243H41.6938V48.7046H44.2124V20.4243Z" fill="#C9CDD3"/>
<path d="M44.2124 20.4243H7.78763V23.8176H44.2124V20.4243Z" fill="#C9CDD3"/>
<path d="M33.0705 33.5857H18.9295V48.7048H33.0705V33.5857Z" fill="#7CCCF2"/>
<path d="M33.0705 33.5857H18.9295V36.0443H33.0705V33.5857Z" fill="#4FACDB"/>
<path d="M26.7848 33.5857H25.2153V48.7048H26.7848V33.5857Z" fill="#4FACDB"/>
<path d="M26.7848 33.5857H25.2153V36.0443H26.7848V33.5857Z" fill="#2B93BC"/>
<path d="M33.9689 10.8362C33.9689 10.4779 33.9429 10.1258 33.8971 9.77996L35.9009 7.75054C36.2104 7.43722 36.2721 6.95571 36.052 6.57424L34.7169 4.26187C34.4967 3.8805 34.0488 3.69332 33.6227 3.80453L30.8632 4.52522C30.3068 4.09571 29.6924 3.73801 29.0332 3.46633L28.2783 0.718961C28.1616 0.294328 27.7754 0 27.335 0H24.665C24.2246 0 23.8386 0.294328 23.7219 0.718961L22.9669 3.46633C22.3076 3.73801 21.6934 4.09571 21.1369 4.52522L18.3774 3.80453C17.9514 3.69322 17.5034 3.8805 17.2832 4.26187L15.9482 6.57424C15.728 6.95561 15.7898 7.43712 16.0992 7.75054L18.103 9.77996C18.0572 10.1258 18.0312 10.4779 18.0312 10.8362C18.0312 11.1945 18.0572 11.5466 18.103 11.8925L16.0993 13.9219C15.7898 14.2352 15.7281 14.7167 15.9483 15.0982L17.2833 17.4106C17.5035 17.7919 17.9514 17.9791 18.3775 17.8679L21.137 17.1472C21.6935 17.5767 22.3078 17.9344 22.9671 18.2061L23.7221 20.9535C23.8388 21.3781 24.2248 21.6724 24.6652 21.6724H27.3353C27.7756 21.6724 28.1618 21.3781 28.2784 20.9535L29.0333 18.2061C29.6926 17.9344 30.3069 17.5767 30.8634 17.1472L33.6229 17.8679C34.0489 17.9792 34.4969 17.7919 34.7171 17.4106L36.0522 15.0982C36.2723 14.7168 36.2105 14.2353 35.9011 13.9219L33.8974 11.8925C33.9429 11.5466 33.9689 11.1945 33.9689 10.8362ZM28.4231 8.41303C31.1199 11.9536 27.1175 15.956 23.5769 13.2594C20.8801 9.71882 24.8825 5.71624 28.4231 8.41303Z" fill="#EC6B59"/>
<path d="M16.5847 31.8751C16.5847 32.8198 17.3504 33.5856 18.2952 33.5856H33.7047C34.6495 33.5856 35.4153 32.8198 35.4153 31.8751C35.4153 30.9303 34.6495 30.1646 33.7047 30.1646H18.2953C17.3505 30.1646 16.5847 30.9304 16.5847 31.8751Z" fill="#3872B7"/>
<path d="M41.1798 42.5398H36.3886C36.1047 42.5398 35.8745 42.3096 35.8745 42.0257V36.2673C35.8745 35.9833 36.1047 35.7532 36.3886 35.7532H41.1798C41.4637 35.7532 41.6939 35.9833 41.6939 36.2673V42.0257C41.6939 42.3095 41.4637 42.5398 41.1798 42.5398Z" fill="#7CCCF2"/>
<path d="M15.6114 42.5398H10.8203C10.5363 42.5398 10.3062 42.3096 10.3062 42.0257V36.2673C10.3062 35.9833 10.5363 35.7532 10.8203 35.7532H15.6114C15.8954 35.7532 16.1255 35.9833 16.1255 36.2673V42.0257C16.1256 42.3095 15.8954 42.5398 15.6114 42.5398Z" fill="#7CCCF2"/>
<path d="M4.22369 49.2189V51.4859C4.22369 51.7699 4.45383 52 4.7378 52H47.2621C47.5461 52 47.7762 51.7699 47.7762 51.4859V49.2189C47.7762 48.935 47.5461 48.7048 47.2621 48.7048H4.7378C4.45394 48.7047 4.22369 48.935 4.22369 49.2189Z" fill="#EC6B59"/>
<path d="M47.2621 48.7046H44.326C44.6099 48.7046 44.8401 48.9348 44.8401 49.2187V51.4857C44.8401 51.7696 44.6099 51.9998 44.326 51.9998H47.2621C47.5461 51.9998 47.7762 51.7695 47.7762 51.4857V49.2187C47.7763 48.9348 47.5461 48.7046 47.2621 48.7046Z" fill="#BC4142"/>
</svg>
